<svg width="580" height="400" xmlns="http://www.w3.org/2000/svg">

 <g>

  <path d="m212.5,334c1,2 2,2 2,2c0,0 0,0 0,0c0,0 0,0 -2,-1c-4,-2 -9.736572,-4.577179 -18,-8c-8.764694,-3.630463 -19.255188,-6.413208 -29,-11c-11.336899,-5.336182 -23,-12 -35,-19c-12,-7 -23.805115,-12.895172 -42,-27c-8.401382,-6.512817 -16.034866,-12.958466 -22,-18c-7.041496,-5.951248 -12.517021,-9.531647 -17,-15c-4.571758,-5.576645 -9,-13 -13,-20c-4,-7 -7,-14 -9,-21c-2,-7 -3.498739,-13.946716 -4,-21c-0.567112,-7.979874 -1,-16 -1,-26c0,-9 1.372572,-18.303604 5,-25c3.434681,-6.340584 8.65942,-11.565315 15,-15c6.6964,-3.627426 14,-4 23,-4c8,0 18,2 28,4c10,2 20.302681,4.378677 29,9c8.330948,4.426651 14.429443,10.60463 19,16c5.560333,6.563751 9.406204,12.783035 13,20c3.394775,6.817291 6.293503,13.881378 9,21c2.24762,5.911697 3.337494,11.310013 5,14c0.7435,1.203003 1,2 2,2c0,0 0,0 0,0c0,-1 0.320358,-2.025818 0,-4c-0.506546,-3.121445 -1.881332,-6.025208 -3,-11c-0.904556,-4.022659 -3.496231,-8.907791 -4,-13c-0.610916,-4.96254 -1,-9 -1,-13c0,-4 0.139114,-8.974182 1,-14c1.193832,-6.969559 2.139008,-14.265999 5,-22c3.10318,-8.388702 8,-16 14,-23c6,-7 14.030701,-13.964363 21,-20c8.035614,-6.959091 15.756287,-12.3601 23,-17c6.78894,-4.348602 13.861938,-7.475452 20,-9c5.903397,-1.466263 13.066132,-1.337673 19,0c7.101898,1.600983 13.119537,4.77195 19,8c5.11145,2.805908 9.389038,6.655926 12,10c3.58844,4.595985 4.069824,8.988777 5,15c1.081299,6.9879 1,14 1,23c0,9 0.886841,19.0438 0,28c-1.004883,10.148407 -4.965881,20.433182 -10,31c-5.015686,10.528183 -12,21 -19,32c-7,11 -13.763794,20.145569 -20,30c-5.784195,9.140182 -11.277725,18.902939 -15,30c-4.32547,12.895355 -7.551971,26.893005 -10,41c-2.587372,14.909912 -3.540268,29.01123 -3,42c0.500427,12.031189 3,22 5,23l2,1" id="svg_5" fill-opacity="null" stroke-opacity="null" stroke-width="10" stroke="#000" fill="none"/>
 </g>
</svg>
