<svg width="580" height="400" xmlns="http://www.w3.org/2000/svg">

 <g>

  <path d="m220.5,77c1,-1 -0.414215,-1.585785 1,-3c0.707108,-0.707108 1,0 1,0c0,-1 0,-1 0,-2c0,-2 -1,-3 -2,-4c-1,-1 -2.026749,-1.770248 -3,-2c-2.176254,-0.513741 -3,-1 -5,-1c-2,0 -3.693436,0.458801 -5,1c-1.847763,0.765366 -3.823746,0.486259 -6,1c-1.946503,0.459503 -3.693436,0.458801 -5,1c-1.847763,0.765366 -4,1 -6,2c-2,1 -4.07843,2.789848 -7,4c-2.065857,0.855705 -4.186005,1.692551 -6,3c-1.147263,0.826904 -3.418854,1.418861 -5,3c-1.581146,1.581139 -2,3 -3,5c-1,2 -2.486252,3.823746 -3,6c-0.229752,0.973251 0,2 0,3c0,1 -0.307449,2.186005 1,4c1.653809,2.29454 4,4 6,5c2,1 4,2 6,2c2,0 4,0 6,0c2,0 3.852737,-0.173096 5,-1c1.813995,-1.307449 3,-2 4,-3c2,-2 3.173096,-3.85273 4,-5c1.307449,-1.813995 1.097885,-3.824432 3,-5c0.850647,-0.525734 2.292892,-1.292892 3,-2c0.707108,-0.707108 1,-2 2,-3c1,-1 1.693436,-2.458801 3,-3c1.847763,-0.765366 2.852737,-1.173096 4,-2c1.813995,-1.307449 2.852737,-1.173096 4,-2c1.813995,-1.307449 3.076126,-1.617317 4,-2c1.306564,-0.541199 2,-2 2,-2c1,0 1,0 1,0c0,0 0,0 0,0c0,0 1,0 1,0c1,0 1.076126,-0.382683 2,0c1.306564,0.541199 2,3 3,4c1,1 1.458801,1.693436 2,3c0.765366,1.847755 0.540497,3.053505 1,5c0.513748,2.176254 0.310745,4.080254 1,7c0.513748,2.176254 1,5 1,7c0,2 1,4 1,6c0,2 0.458801,2.693436 1,4c0.765366,1.847755 -0.38269,3.076118 0,4c0.541199,1.306564 1,3 1,4c0,1 1,2 1,3c0,1 0,1 0,2c0,1 0,2 0,3c0,0 0,2 0,3c0,1 0,2 0,4c0,1 0,2 0,2c0,1 -0.292892,1.292892 -1,2c-0.707108,0.707108 0.38269,1.076126 0,2c-0.541199,1.306564 -1,2 -2,3c-1,1 -1.173096,2.852737 -2,4c-1.307449,1.813995 -1.076126,2.61731 -2,3c-1.306564,0.541199 -1,2 -1,2c-1,1 -1,1 -2,2c0,0 -1,1 -1,1c-1,1 -0.292892,1.292892 -1,2c-0.707108,0.707108 -1,1 -1,1c-1,1 -1.458801,0.693436 -2,2c-0.38269,0.923874 -0.458801,0.693436 -1,2c-0.38269,0.923874 -0.61731,1.076126 -1,2c-0.541199,1.306564 -1,1 -2,2c0,0 -0.292892,0.292892 -1,1c-0.707108,0.707108 -0.458801,1.693436 -1,3c-0.38269,0.923874 -1,2 -1,2c0,1 -1,2 -1,2c0,1 -1,2 -1,2c0,1 -1,1 -1,2c0,0 -0.292892,0.292892 -1,1c-0.707108,0.707108 -0.458801,1.693436 -1,3c-0.38269,0.923874 -1,2 -1,3c0,0 -1,1 -1,2c0,0 0.707108,1.292892 0,2c-0.707108,0.707108 -1,1 -1,2c0,1 0,1 0,2c0,0 0,1 0,2c0,0 0,1 0,2c0,1 0,2 0,3c0,0 0,1 1,1c0,0 0,0 0,0c0,1 0.076126,0.61731 1,1c1.306564,0.541199 1.076126,1.61731 2,2c1.306564,0.541199 2,1 3,2c0,0 0,0 1,0c0,0 0,0 0,0c1,0 1,0 2,0c0,0 1,0 2,1c0,0 0,0 1,0c0,0 1,0 1,0c1,0 1,0 2,0c1,0 1,0 2,0c1,0 1,0 2,0c0,0 0,0 1,0c1,0 1.292892,-0.292892 2,-1c0.707108,-0.707108 2,0 2,0c1,0 2,-1 3,-1c1,0 2,-1 2,-1c1,0 2,0 3,-1c0,0 1,0 1,0c1,0 1,0 2,-1c0,0 1,0 1,0c1,0 1,0 2,0c0,0 1,-1 2,-1c0,0 1,0 1,0c1,0 2,0 3,0c1,0 1.693451,-0.458801 3,-1c0.923889,-0.38269 2,0 2,0c1,0 1,0 1,0c1,0 1,0 1,0c1,0 1,0 1,0c1,0 1,0 2,0c0,0 1,0 1,0c1,0 2,0 2,0c1,0 2,0 3,1c0,0 1,0 1,0c0,0 0,0 1,0c0,0 0.292908,-0.707108 1,0c0.707092,0.707108 0,1 1,1c0,0 0.292908,-0.707108 1,0c0.707092,0.707108 1,1 1,1c1,0 1,0 2,1c0,0 0,0 1,0c0,0 0,0 1,1c0,0 1,0 1,0c1,1 2,1 2,1c1,1 2,1 2,1c1,1 1,1 1,1c1,0 1,0 1,0c1,1 1,1 1,1c1,0 1,1 1,1c1,0 1,0 1,0c0,0 0,0 0,1c0,0 0.292908,0.292892 1,1c0.707092,0.707108 1,1 1,1c0,0 1,0 1,1c0,0 0,0 0,0c0,1 1,1 1,2c0,1 0,2 0,2c1,1 1,1 1,2c0,0 0,1 0,1c0,1 0,2 0,2c0,1 0,1 0,2c0,0 -0.292908,0.292892 -1,1c-0.707092,0.707108 0,1 -1,2c-1,1 -1.458801,0.693436 -2,2c-0.38269,0.923874 -1,1 -2,2c0,0 -1.076111,0.61731 -2,1c-1.306549,0.541199 -1.292908,1.292892 -2,2c-0.707092,0.707108 -2.076111,0.61731 -3,1c-1.306549,0.541199 -2.076111,0.61731 -3,1c-1.306549,0.541199 -2,1 -2,1c-1,0 -2,1 -3,1c-1,0 -2,1 -3,1c-1,0 -1.292908,0.292892 -2,1c-0.707092,0.707108 -2,0 -3,0c-1,0 -1,0 -2,0c-1,0 -1.693451,0.458801 -3,1c-0.923889,0.38269 -2,0 -2,0c-1,0 -1.693451,0.458801 -3,1c-0.923874,0.38269 -2,0 -2,0c-1,0 -2.076126,-0.38269 -3,0c-1.306564,0.541199 -2,1 -3,1c-1,0 -2,0 -3,0c-1,0 -3,0 -4,0c-1,0 -2.026749,-0.229752 -3,0c-2.176254,0.513748 -3,1 -3,1c-1,0 -2,0 -3,0c-1,0 -1,0 -2,0c-1,0 -1,0 -2,0c-1,0 -1,0 -2,0c0,0 -1,0 -2,0c0,0 -1,0 -2,0c0,0 -1,0 -2,0c-1,0 -2,0 -4,0c-1,0 -2,0 -4,0c-1,0 -1,0 -2,0c-1,0 -2,0 -2,0c-1,0 -1,0 -2,0c-1,0 -2,0 -2,0c-1,0 -2,0 -2,0c-1,0 -2,0 -2,0c-1,0 -2,0 -2,0c-1,0 -2,0 -2,0c-1,0 -1,0 -2,0c0,0 0,0 0,0c-1,0 -1,0 -1,0c-1,0 -1,0 -1,0c-1,0 -1,0 -1,0c0,0 0,0 0,0c0,0 0,0 0,0c0,0 0,0 0,0c0,0 0,0 0,1c0,0 0.458801,0.693436 1,2c0.38269,0.923874 0.61731,1.076126 1,2c0.541199,1.306564 1,2 2,3c0,0 1,1 1,1c0,1 1,1 1,1c0,0 0,0 0,0c0,1 0,1 1,2c0,0 1,1 1,1c0,1 1,1 1,1c0,0 0,1 0,1c1,0 1,0 1,1c0,0 0,0 1,1c0,0 0.292892,0.292908 1,1c0.707108,0.707092 1,1 1,2c0,0 1,1 1,1c1,1 0.292892,1.292908 1,2c0.707108,0.707092 1,1 2,2c0,0 1,1 1,1c0,1 1,1 1,2c0,0 0.61731,0.076111 1,1c0.541199,1.306549 1,1 2,2c0,0 1,1 1,1c1,1 0.292892,1.292908 1,2c0.707108,0.707092 1,1 2,1c0,0 0.292892,0.292908 1,1c0.707108,0.707092 1,1 1,1c0,0 1,1 1,1c0,0 0.292892,0.292908 1,1c0.707108,0.707092 1,1 2,1c0,0 0.292892,0.292908 1,1c0.707108,0.707092 1.292892,-0.707092 2,0c0.707108,0.707092 0.076126,0.61731 1,1c1.306564,0.541199 0.693436,1.458801 2,2c0.923874,0.38269 1.292892,-0.707092 2,0c0.707108,0.707092 0,1 1,1c0,0 1,1 1,1c1,0 1,1 2,1c1,0 1,0 2,1c0,0 1.292892,-0.707092 2,0c0.707108,0.707092 1,1 1,1c1,0 0.292892,0.292908 1,1c0.707108,0.707092 1,0 2,0c0,0 1,0 1,0c1,1 1,1 2,1c0,0 1,0 1,0c1,0 1,0 2,0c0,0 1,0 1,0c1,0 1,0 2,0c1,0 1,0 2,0c1,0 2,0 3,0c1,0 2,0 3,0c0,0 1,-1 2,-1c0,0 1.076111,0.38269 2,0c1.306549,-0.541199 1.076111,-0.61731 2,-1c1.306549,-0.541199 2.076111,-0.61731 3,-1c1.306549,-0.541199 2.292908,-0.292908 3,-1c0.707092,-0.707092 1,-1 1,-1c1,0 1,-1 2,-1c1,0 1.292908,-0.292908 2,-1c0.707092,-0.707092 2,0 2,0c1,-1 2,-1 3,-1c0,0 1,-1 2,-1c0,0 1,0 1,0c1,-1 1.292908,-0.292908 2,-1c0.707092,-0.707092 1,-1 2,-1c0,0 0,0 1,-1c0,0 0,0 1,0c0,0 0,0 1,-1c0,0 1,0 1,0c1,-1 1.292908,-0.292908 2,-1c0.707092,-0.707092 1,-1 1,-1c1,-1 1,-1 1,-1c1,0 1.292908,-0.292908 2,-1c0.707092,-0.707092 1,-1 1,-1c1,-1 1,-1 2,-2c0,0 0,0 1,0c0,0 0,-1 1,-1c0,0 1,-1 2,-2c0,0 1,-1 2,-1c0,0 0,-1 1,-1c0,0 0.292908,0.707092 1,0c0.707092,-0.707092 0,-1 0,-1c1,0 1,-1 1,-1c1,0 1,-1 2,-1c0,0 0,0 1,-1c0,0 0,0 0,0c0,0 1,0 1,0c0,-1 0,-1 1,-1c0,0 0,0 0,-1c0,0 0,0 1,0c0,0 0,0 0,0c0,-1 1,-1 1,-1c0,0 0,0 0,0c1,0 1,0 1,0c0,0 0,0 0,0c0,0 0,-1 0,-1c1,0 1,0 1,0c0,0 0,-1 0,-1c1,0 1,0 1,0c0,0 0,0 0,0c1,-1 1,-1 1,-1c0,0 0,0 0,0c0,0 0,0 0,0c0,0 0,0 0,0c0,0 0,0 1,0c0,0 0,0 0,0c0,0 0,0 0,0c0,0 0,0 0,-1c0,0 1,0 1,0c0,0 1,0 1,-1c0,0 1,0 1,0c0,0 -0.707092,-0.292908 0,-1c0.707092,-0.707092 1,0 1,0c1,0 0.292908,-0.292908 1,-1c0.707092,-0.707092 1.292908,0.707092 2,0c0.707092,-0.707092 0,-1 1,-1c0,0 0,0 0,0c0,0 0,0 1,0c0,0 0,0 0,0c0,-1 0,-1 0,-1c0,0 1,0 1,0c0,0 0,0 0,0c0,0 0,0 0,0c0,0 0,0 0,0c0,0 0,0 0,0c0,0 0,0 0,0c0,0 0,0 0,0c0,0 0,0 0,0c0,0 0,0 0,0c0,0 0,0 0,0c0,0 0,0 0,0c0,0 0,0 0,0c0,0 0,0 0,0c0,0 0,0 0,0c0,0 0,0 0,0c0,0 0,0 0,0c0,0 0,0 0,0c0,0 0,0 0,0c0,0 0,0 0,0c0,0 0,0 0,0c0,0 0,0 0,0c0,0 0,0 0,0c0,0 0,0 0,0c0,0 0,0 0,0c0,0 0,0 0,0c0,0 0,0 0,0c0,0 0,0 0,0c0,0 0,0 0,0c0,0 0,0 0,0c0,0 0,0 0,0c0,0 0,0 0,0c0,0 0,0 0,0c0,0 0,0 0,0c0,0 0,0 0,0c0,0 0,0 0,0c0,0 0,0 0,0c0,0 0,0 0,0c0,0 0,0 0,0c0,0 1,0 1,-1c0,0 0,0 0,0c0,0 0,0 0,0c0,0 1,0 1,0c0,0 0,0 0,-1c0,0 0,0 1,-1c0,0 -0.707092,-0.292892 0,-1c0.707092,-0.707108 1,-1 1,-1c0,0 0,-1 0,-1c0,-1 1,-1 1,-2c0,-1 -0.38269,-1.076126 0,-2c0.541199,-1.306564 1,-1 1,-1c0,-1 0,-1 0,-2c0,-1 0,-2 0,-3c0,-1 0,-2 0,-2c0,-1 0,-1 0,-1c0,-1 0,-1 0,-2c0,-1 0,-2 0,-3c0,-1 0,-2 0,-3c0,0 0,-1 0,-1c0,0 0,-1 0,-1c0,-1 0,-2 0,-3c0,-2 0,-3 0,-3c0,-1 0,-2 0,-2c0,0 0,0 0,-1c0,-1 -0.61731,-2.076126 -1,-3c-0.541199,-1.306564 -1.458801,-1.693436 -2,-3c-0.38269,-0.923874 -1,-2 -1,-3c0,0 -1,-1 -1,-2c0,-1 -1.770233,-3.026749 -2,-4c-0.513733,-2.176254 -1.61731,-3.076126 -2,-4c-0.541199,-1.306564 -1.292908,-2.292892 -2,-3c-0.707092,-0.707108 -1.458801,-0.693436 -2,-2c-0.38269,-0.923874 -1,-1 -1,-2c0,-1 -1.458801,-1.693436 -2,-3c-0.38269,-0.923874 -0.292908,-2.292892 -1,-3c-0.707092,-0.707108 -0.693451,-2.458801 -2,-3c-0.923889,-0.38269 -1,-1 -2,-2c0,0 -0.292908,-0.292892 -1,-1c-0.707092,-0.707108 -1,-2 -1,-2c-1,-1 -1.292908,-1.292892 -2,-2c-0.707092,-0.707108 -1,-2 -1,-2c-1,-1 -0.292908,-1.292892 -1,-2c-0.707092,-0.707108 -1.292908,-0.292892 -2,-1c-0.707092,-0.707108 -1,-2 -1,-2c-1,-1 -1,-2 -1,-2c0,0 -1,-1 -1,-1c0,0 -0.292908,-1.292892 -1,-2c-0.707092,-0.707108 -1.292908,-0.292892 -2,-1c-0.707092,-0.707108 0,-1 -1,-2c0,0 0,-1 -1,-1c0,0 0,0 0,-1c0,0 -1,0 -1,0c0,-1 0,-1 -1,-2c0,0 0,-1 -1,-1c0,0 0,0 0,-1c0,0 -1,-1 -1,-1c0,-1 -1,-1 -1,-1c0,-1 -1,-1 -1,-2c0,0 0,0 -1,-1c0,0 0,-1 0,-1c-1,0 -1,0 -1,-1c0,0 0,0 0,0c0,-1 -1,-1 -1,-1c0,0 0,-1 0,-1c-1,0 -1,-1 -1,-1c0,0 -1,-1 -1,-1c-1,-1 -1,-2 -1,-2c-1,-1 -1,-1 -1,-1c-1,-1 -1,-1 -1,-1c0,0 0.707092,-0.292892 0,-1c-0.707092,-0.707108 -1,0 -1,-1c0,0 -1,0 -1,-1c0,0 0,0 0,0c-1,0 -1,-1 -1,-1c0,0 -1,-1 -1,-1c0,0 0,-1 0,-1c-1,0 -1,-1 -1,-1c0,0 -1,-1 -1,-1c0,-1 0,-1 -1,-2c0,0 -0.292908,-0.292892 -1,-1c-0.707092,-0.707108 0.38269,-1.076118 0,-2c-0.541199,-1.306564 -0.292908,-1.292892 -1,-2c-0.707092,-0.707108 -1,-1 -1,-1c-1,-1 -1,-1 -1,-2c0,0 0,0 -1,-1c0,0 0,0 0,-1c0,-1 -0.458801,-0.693436 -1,-2c-0.38269,-0.923882 0,-1 0,-2c0,0 0,0 0,-1c0,0 0,0 0,0c0,-1 0,-2 0,-2c0,-1 0,-2 0,-3c0,0 0,-1 0,-1c0,0 0,0 0,-1c0,0 0,0 0,0c0,-1 0,-2 0,-2c0,-1 -0.707092,-1.292892 0,-2c0.707092,-0.707108 1,0 1,0c0,0 0,-1 0,-1c1,0 1,0 2,-1c1,-1 3,-2 4,-3c1,-1 2,-2 3,-2c0,0 0,0 1,0c0,0 0,0 0,0c1,-1 1,-1 1,-1c1,0 1,0 2,-1c0,0 1,0 1,0c1,0 1,0 2,0c1,0 2,0 3,0c0,0 1,0 2,0c0,0 1,0 1,0c1,0 1,0 2,0c1,0 2,0 3,0c1,0 2,0 3,0c1,0 2,0 3,0c0,0 1,0 2,0c0,0 1,0 2,0c1,0 1,0 2,0c1,0 2,0 2,0c1,0 1,0 2,1c0,0 0,0 1,0c0,0 1,0 2,0c1,0 1.693451,0.458801 3,1c0.923889,0.382683 2,0 3,0c0,0 1,0 2,0c0,0 1,0 1,0c1,0 1,0 1,0c1,0 2,0 2,0c1,0 1.292908,0.292892 2,1c0.707092,0.707108 1,0 2,0c0,0 1,0 2,0c1,0 2,0 3,0c0,0 1,0 2,0c0,0 0.292908,0.292892 1,1c0.707092,0.707108 2,0 2,0c1,0 2,0 3,0c1,0 1,0 2,0c1,0 2,1 3,1c1,0 1,0 2,0c1,0 2,0 3,1c0,0 1,0 1,0c1,0 1.292908,-0.707108 2,0c0.707092,0.707108 0,1 1,1c0,0 1,1 1,1c1,0 1,0 2,1c0,0 0,0 0,0c0,0 1,1 1,1c0,0 -0.707092,0.292892 0,1c0.707092,0.707108 1,0 1,1c0,0 0,1 0,1c0,0 0,1 0,1c0,1 0,1 0,2c0,0 0,1 0,1c0,0 0,1 0,1c0,0 0,1 0,1c0,0 0,1 0,1c0,0 0,1 0,1c0,1 -1,1 -1,2c0,0 0,0 0,0c-1,0 -1,0 -1,0c0,0 0,0 0,0c-1,1 -1.076111,0.617317 -2,1c-1.306549,0.541199 -2,1 -2,1c-1,1 -2,1 -2,1c-1,0 -2,1 -2,1c0,0 -1,0 -1,0c-1,0 -1,0 -2,1c0,0 -1,0 -1,0c-1,0 -1,0 -2,0c-1,0 -1,0 -2,0c0,0 -1,0 -1,0c-1,0 -1,0 -2,0c0,0 0,0 -1,0c0,0 -1,0 -1,0c-1,0 -1,0 -2,0c0,0 -1,0 -1,0c-1,0 -2,0 -2,0c-1,0 -1,0 -1,0c-1,0 -1.292908,0.707108 -2,0c-0.707092,-0.707108 -1,-1 -1,-1c-1,0 -1,0 -2,0c-1,0 -1.292908,0.707108 -2,0c-0.707092,-0.707108 -1,-1 -1,-1c-1,0 -1,0 -1,0c-1,0 -1,0 -1,0c0,-1 -1,-1 -1,-1c0,0 0,0 -1,0c0,0 0,-1 -1,-1c0,0 0,0 0,0c0,0 0,0 0,0c-1,-1 -1,-1 -1,-1c0,0 -1,0 -1,0c0,0 0,-1 0,-1c0,0 0,0 -1,0c0,0 0,0 0,0c0,-1 0,-1 0,-1c0,0 -1,0 -1,0c0,0 0,0 0,0c0,-1 0,-1 0,-1c0,0 -1,0 -1,-1c0,0 0,0 0,0c0,0 -1,0 -1,0c0,0 0,0 0,0c0,-1 0,-1 0,-1c0,0 0,0 -1,-1c0,0 0,0 0,0c0,0 0,0 0,0c0,0 0,0 -1,-1c0,0 0,0 0,0c0,0 0,-1 0,-1c0,0 0,0 0,0c0,0 0,0 0,0c-1,0 -1,0 -1,-1c0,0 0,0 0,0c0,0 -1,0 -1,-1c0,0 0,0 0,0c0,0 0,0 0,0c0,-1 0,-1 0,-1c0,0 0,0 0,0c0,0 0,0 0,0c-1,0 -1,-1 -1,-1c0,0 0,0 0,0c0,-1 0,-1 0,-1c0,0 0,0 0,0c0,0 0,0 0,0c0,0 0,0 0,0c0,0 0,-1 0,-1c0,0 0,0 0,0c0,0 0,0 0,0c0,0 0,0 0,0c0,0 0,0 0,0c0,0 0,0 0,0c0,0 0,-1 0,-1c0,0 0,0 0,0c0,0 0,0 0,0c0,0 0,0 0,0c0,0 0,0 0,0c0,0 0,0 0,-1c0,0 0,0 0,0c0,0 0,0 0,0c0,0 0,0 0,0c0,0 0,-1 0,-1c0,0 0,-1 0,-1c0,0 0,0 0,0c0,0 0,0 0,0c0,0 0,0 0,0c0,0 0,0 0,0c0,0 0,0 0,0c0,0 0,0 0,0c0,0 0,0 0,0c0,0 0,0 0,0c0,0 0,-1 0,-1c0,0 0,0 0,0c0,0 0,0 0,0c0,0 0,0 0,0c0,0 0,0 0,-1c0,0 0,0 0,0c0,0 0,0 0,0c0,0 0,0 0,0c0,0 0,0 0,-1c0,0 0,0 0,0c0,0 0,0 0,0c0,0 0,0 0,0c0,0 0,0 0,0c0,0 0,0 0,0c0,0 0,0 0,0c0,0 0,0 0,0c0,0 0,0 0,0c0,0 0,0 0,0c0,0 0,0 0,0c0,0 0,0 0,0c0,0 0,0 0,0c0,0 0,0 0,0c0,0 0,0 0,0c0,0 0,0 0,0c0,0 0,0 0,0c0,0 0,0 0,0c0,0 0,0 0,0c0,0 0,0 0,0c0,0 0,0 0,0c0,0 0,0 0,0c0,-1 0,-1 0,-1c0,0 0,0 0,0c0,0 0,0 0,0c0,0 0,0 0,0c0,0 0,0 0,0c0,0 0,0 0,0c0,0 0,0 0,0c0,0 0,0 0,0c0,0 0,0 0,0c0,0 0,0 0,0c0,0 0,0 0,0c0,0 0,0 0,0c0,0 0,0 0,0c0,0 0,0 0,0c0,-1 0,-1 0,-1c0,0 0,0 0,0c0,0 0,0 0,0c0,0 0,0 0,0c0,0 0,0 0,0c0,0 0,0 0,0c0,0 0,0 0,0c0,0 0,0 0,0c0,0 0,0 0,0c0,0 0,0 0,0c0,0 -1,0 -1,0c0,0 0,0 0,0c0,0 0,0 0,0c0,0 0,0 0,0c0,0 0,0 0,0c0,0 0,0 0,0c0,0 0,0 0,0c0,0 0,0 0,0c0,0 0,0 0,0c0,0 0,0 0,0c0,0 -1,0 -1,0c0,0 0,0 0,0c0,0 0,0 0,0c0,0 0,0 0,0c0,0 0,0 0,0c0,-1 0,-1 0,-1c0,0 0,0 0,0c0,0 0,0 0,0c0,0 0,0 0,0c0,0 0,0 0,0c0,0 0,0 0,0c0,0 0,0 0,0c0,0 0,0 0,0c0,0 0,0 0,0c0,0 0,0 0,0c0,0 0,0 0,0c0,0 0,0 0,0c0,0 0,0 0,0c0,0 0.765381,1.152245 0,3c-0.541199,1.306564 -1,2 -1,3c0,2 0.38269,3.076118 0,4c-0.541199,1.306564 -1,2 -1,2c0,1 0,2 0,3c0,1 0,2 0,3c0,1 0,3 0,4c0,2 0,3 0,5c0,2 1,3 1,4c0,2 0.458801,2.693436 1,4c0.765381,1.847763 0.458801,2.693436 1,4c0.765381,1.847763 0,3 0,4c0,1 1,2 1,4c0,1 0.458801,1.693436 1,3c0.765381,1.847763 0.486267,2.823746 1,5c0.229767,0.973251 0.61731,3.076126 1,4c0.541199,1.306564 0.770233,3.026749 1,4c0.513733,2.176254 1.486267,2.823746 2,5c0.459503,1.946503 0.770233,4.026749 1,5c0.513733,2.176254 1.486267,3.823746 2,6c0.229767,0.973251 0.458801,2.693436 1,4c0.765381,1.847763 1,4 1,6c0,2 1.486267,3.823746 2,6c0.68927,2.919754 1.486267,4.823746 2,7c0.229767,0.973251 1,3 1,4c0,2 0.234619,3.152237 1,5c0.541199,1.306564 1.458801,2.693436 2,4c0.765381,1.847763 0.540497,3.053497 1,5c0.513733,2.176254 1.486267,3.823746 2,6c0.459503,1.946503 0.61731,4.076126 1,5c0.541199,1.306564 1,2 1,3c0,1 0.234619,2.152237 1,4c0.541199,1.306564 1.486267,2.823746 2,5c0.459503,1.946503 0.540497,4.053497 1,6c0.513733,2.176254 0.692535,4.186005 2,6c0.826904,1.147263 1.486267,2.823746 2,5c0.229767,0.973251 1,3 1,5c0,2 1,4 1,6c0,2 0.493469,3.878571 1,7c0.320374,1.974182 0.486267,4.823761 1,7c0.459503,1.946503 1,4 1,5c0,1 0.458801,1.693451 1,3c0.38269,0.923889 0,2 0,3c0,1 -0.765381,2.152252 0,4c0.541199,1.306549 1,3 1,4c0,1 -0.38269,2.076111 0,3c0.541199,1.306549 1,1 1,1c0,0 0,0 0,1c0,0 0,1 0,3c0,1 0,2 0,2c0,1 0,1 0,1c0,0 0,0 0,0c0,1 1,1 1,2c0,1 0,1 0,2c0,0 1,0 1,0c0,0 0,0 0,0c0,0 0,0 0,0c0,0 0,1 0,1c0,0 0,1 0,1c0,0 0,0 0,0c0,1 0,1 0,2c0,0 0,0 0,0c0,1 0,1 0,1c0,0 0,0 0,0c0,0 0,0 0,0c0,0 0,0 0,0c0,0 0,0 0,0c0,0 0,0 0,0c0,0 0,0 0,0c0,0 0,1 -1,1c0,0 0,0 -1,1c0,0 0,1 -1,1c0,0 -1,1 -1,1c-1,0 -1,1 -1,1c-1,0 -0.693451,1.458801 -2,2c-0.923889,0.38269 -2,1 -3,2c-1,1 -1,1 -2,2c-1,1 -2.076111,0.61731 -3,1c-1.306549,0.541199 -1.693451,1.458801 -3,2c-0.923889,0.38269 -1.693451,1.458801 -3,2c-1.847748,0.765381 -2.693451,1.458801 -4,2c-1.847748,0.765381 -2.823761,1.486267 -5,2c-0.973236,0.229767 -3.026764,0.770233 -4,1c-2.176239,0.513733 -2.823761,1.486267 -5,2c-0.973236,0.229767 -3,1 -4,1c-1,0 -2,1 -4,1c-1,0 -2,1 -3,1c-1,0 -2.026764,-0.229767 -3,0c-2.176239,0.513733 -3,1 -4,1c-1,0 -2,1 -3,1c-1,0 -2.026764,-0.229767 -3,0c-2.176239,0.513733 -3,1 -4,1c-2,0 -2.693451,0.458801 -4,1c-0.923889,0.38269 -3,0 -4,0c-1,0 -1.823761,0.486267 -4,1c-0.973236,0.229767 -3,0 -4,0c-2,0 -4,1 -5,1c-2,0 -4,0 -6,0c-2,0 -4.026764,-0.229767 -5,0c-2.176239,0.513733 -3,1 -4,1c-1,0 -2,0 -3,0c-1,0 -2,0 -4,0c-1,0 -2.823746,0.486267 -5,1c-0.973251,0.229767 -2,0 -3,0c-1,0 -2,0 -3,0c-1,0 -1.152237,-0.765381 -3,0c-1.306564,0.541199 -2,1 -4,1c-1,0 -2,0 -4,0c-1,0 -2,0 -3,0c-1,0 -2,0 -3,0c-1,0 -2,0 -3,0c-1,0 -2,0 -3,0c-1,0 -2,0 -2,0c-1,0 -2,0 -2,0c-1,0 -1,0 -2,0c0,0 -1,0 -1,0c-1,0 -2,-1 -2,-1c-1,0 -1.292892,-0.292908 -2,-1c-0.707108,-0.707092 -1,0 -2,0c-1,0 -1,0 -2,-1c0,0 -1,0 -2,0c-1,0 -0.693436,-0.458801 -2,-1c-0.923874,-0.38269 -1,0 -2,0c-1,0 -1,-1 -2,-1c0,0 -1,0 -1,0c-1,0 -0.693436,-0.458801 -2,-1c-0.923874,-0.38269 -1.076126,0.38269 -2,0c-1.306564,-0.541199 -1,-1 -2,-1c0,0 -0.292892,-0.292908 -1,-1c-0.707108,-0.707092 -1,0 -1,0c-1,0 -0.292892,-0.292908 -1,-1c-0.707108,-0.707092 -1,0 -1,0c0,-1 -1,-1 -1,-1c0,-1 -1,-1 -1,-1c0,-1 -0.292892,-1.292908 -1,-2c-0.707108,-0.707092 0,-1 -1,-2c0,0 0,0 0,-1c0,0 0,0 0,0c0,-1 -0.458801,-1.693451 -1,-3c-0.38269,-0.923889 0,-2 0,-3c0,-1 0,-1 0,-2c0,0 0,0 0,0c0,0 0,0 0,0c0,0 0,0 0,-1c0,0 0,0 0,0c0,0 0,0 0,0c0,0 0,0 0,0c0,0 0,-1 0,-1c0,0 0,0 0,0c0,-1 0,-1 0,-1c0,0 0,0 0,0c0,0 0,0 0,0c0,0 0,0 0,-1c0,0 0,0 0,0c0,0 0,0 0,0c0,0 0,0 0,0c0,0 0,0 0,0c0,0 0,0 0,0c0,0 0,0 0,0c0,0 0,0 0,0c0,0 0,0 0,0c0,0 0,0 0,0c0,0 0,0 0,0c0,0 0,0 0,0c0,0 0,0 0,0c0,0 0,0 0,0c0,0 0,0 0,0c0,0 0,0 0,0c0,0 0,0 0,0c0,0 0,0 0,0c0,0 0,0 0,0c0,0 0,0 0,0c0,0 0,0 0,0c0,0 0,0 0,0c0,0 0,-1 0,-1c0,0 0,0 0,0c0,-1 0,-1 0,-2c0,0 0,0 0,-1c0,0 1,0 1,0c0,0 0,0 0,0c0,0 0,0 0,0c0,0 0,-1 0,-1c0,0 0,0 0,0c0,0 0,-1 0,-1c1,-1 1,-1 1,-1c0,-1 0,-1 0,-1c0,-1 0,-1 0,-1c1,0 1,0 1,0c0,0 0,-1 0,-1c0,0 0,0 0,0c0,0 0,0 0,0c0,0 0,0 0,0c0,0 0,0 0,0c0,0 0,0 0,0c0,0 0,0 0,0l0,0l0,0" id="svg_1" fill-opacity="null" stroke-opacity="null" stroke-width="10" stroke="#000" fill="none"/>
 </g>
</svg>
