<svg width="580" height="400" xmlns="http://www.w3.org/2000/svg">

 <g>
  <path d="m158.5,182c0,0 0.292892,-0.707108 1,0c0.707108,0.707108 0,1 0,1c0,0 0,0 0,0c0,1 1,1 1,1c0,0 0,0 0,0c1,1 0.292892,1.292892 1,2c0.707108,0.707108 0.292892,0.292892 1,1c0.707108,0.707108 1,0 1,1c0,0 1,0 1,1c0,0 0,0 0,0c0,0 0,1 0,1c1,0 1,0 1,0c0,0 1,0 1,1c0,0 1,0 1,1c0,0 1,1 1,1c0,0 0,1 1,1c0,0 -0.707108,0.292892 0,1c0.707108,0.707108 1,0 1,0c0,0 0,1 0,1c1,0 1,0 1,0c0,1 0,1 0,1c0,0 0.292892,-0.707108 1,0c0.707108,0.707108 0,1 0,1c0,0 0,0 1,0c0,0 0,0 0,1c0,0 1,0 1,0c0,1 0,1 1,1c0,0 0,1 0,1c1,0 1,0 1,0c0,0 0,1 1,1c0,0 0,0 0,0c0,0 0,0 1,1c0,0 0,0 1,0c0,0 0,0 0,1c0,0 0,0 1,0c0,0 0,1 0,1c1,0 1,0 1,0c0,0 1,0 1,1c0,0 0.292892,-0.707108 1,0c0.707108,0.707108 0,1 0,1c1,0 1,0 1,0c0,1 1,1 1,1c0,0 0.292892,-0.707108 1,0c0.707108,0.707108 0,1 0,1l0,0l0,0" id="svg_6" stroke-width="45.5" stroke="#000" fill="none"/>
  <path d="m372.5,231c0,0 -0.458801,0.306564 -1,-1c-0.38269,-0.923874 -0.292908,-1.292892 -1,-2c-0.707092,-0.707108 -1.292908,-1.292892 -2,-2c-0.707092,-0.707108 -1,-1 -1,-1c-1,-1 -1,-1 -2,-2c0,0 0,-1 0,-1c0,-1 -1,-2 -1,-2c0,-1 0,-1 0,-2c0,0 0,0 0,-1c0,0 0,-1 0,-1c0,0 0,0 0,0c0,0 1,0 1,0c0,0 0,0 1,0c0,0 0,0 1,1c0,0 0.292908,-0.707108 1,0c0.707092,0.707108 1,1 2,2c0,0 1,0 2,1c1,1 0.693451,1.458801 2,2c0.923889,0.38269 0.693451,0.458801 2,1c0.923889,0.38269 1.076111,0.61731 2,1c1.306549,0.541199 1,1 1,1c1,1 1,1 1,2c0,0 1,0 1,1c0,0 0,0 0,0c1,1 1,1 1,1c1,0 1,1 1,1c0,0 1,1 1,1c0,1 0.292908,0.292892 1,1c0.707092,0.707108 1,1 1,2c0,0 1,0 1,1c0,0 1,0 1,0c0,1 0,1 0,1c1,0 1,0 1,0c1,0 3,0 6,-1l5,-2l4,0" id="svg_7" stroke-width="45.5" stroke="#000" fill="none"/>
  <path d="m298.5,124c0,0 0,0 0,0c-2,0 -3,1 -4,2c0,0 -0.61731,1.076118 -1,2c-0.541199,1.306564 -1,2 -1,3c0,1 0,3 0,4c0,1 0,1 0,3c0,0 0,1 0,2c0,2 0,4 0,5c0,2 0,4 0,6c0,2 0,5 0,7c0,3 0,5 0,7c0,3 0,5 0,6c0,2 0,4 0,6c0,0 0,1 0,2c0,1 0,1 0,1c0,0 0,0 1,-1c0,0 0,0 0,0c0,0 0,-1 0,-1c0,-1 0,-1 0,-1c0,-1 0.292908,-0.292892 1,-1c0.707092,-0.707108 0.292908,-1.292892 1,-2c0.707092,-0.707108 -0.38269,-1.076126 0,-2c0.541199,-1.306564 0.292908,-1.292892 1,-2c0.707092,-0.707108 1,-1 1,-2c0,-1 1,-2 1,-2c0,-1 1,-2 1,-3c0,0 0,0 0,0c0,-1 0,-1 1,-1l0,0l-1,0l-1,0" id="svg_8" stroke-width="45.5" stroke="#000" fill="none"/>
  <path d="m465.5,24c0,0 0,0 0,1c0,0 1,1 1,1c0,1 1,2 1,2c0,1 0.458801,1.693438 1,3c0.38269,0.92388 0,1 0,2c0,1 0,1 0,1c0,0 0,1 0,1c-1,0 -0.693451,1.458805 -2,2c-0.923889,0.382683 -1.076111,0.617317 -2,1c-1.306549,0.541195 -1.292908,2.292892 -2,3c-0.707092,0.707108 -2.076111,0.617317 -3,1c-1.306549,0.541195 -2.693451,2.458805 -4,3c-1.847748,0.765366 -3.076111,0.617317 -4,1c-1.306549,0.541195 -2,1 -2,1c-1,1 -1,1 -1,1c0,1 -1,1 -1,1c-1,1 -1.292908,0.292892 -2,1c-0.707092,0.707108 0,1 0,1c0,1 0,1 1,1c0,0 1,0 2,0c1,0 1,0 2,1c1,1 2.458801,0.693436 3,2c0.38269,0.923878 1.292908,1.292892 2,2c0.707092,0.707108 1,2 1,2c1,0 1,0 1,1c0,0 1,0 1,0c0,0 0,0 1,0c0,0 0,0 0,0c1,0 1,0 1,0c0,0 0,0 0,0c0,-1 0,-1 -2,-2l-1,0" id="svg_9" stroke-width="45.5" stroke="#000" fill="none"/>
  <path d="m93.5,54c0,0 0,1 0,1c0,0 0,0 0,0c-1,0 -1,0 -2,0c-1,0 -3,1 -4,1c-1,0 -2,1 -4,1c-1,0 -3,1 -4,1c-1,0 -2,0 -3,0c-1,0 -2,0 -3,0c-1,0 -1,0 -2,0c0,0 0,0 0,0c0,1 0,1 0,1c0,0 0,0 0,0c1,0 1,0 2,0c1,0 1.458801,-0.693436 2,-2c0.765366,-1.847759 1.173096,-2.85273 2,-4c1.307449,-1.813992 1,-4 2,-5c1,-1 1.617317,-2.076122 2,-3c0.541199,-1.306564 1,-1 2,-1c0,0 1,0 1,0c1,0 1,0 2,0c0,0 1,1 1,1c1,1 0.617317,1.076122 1,2c0.541199,1.306564 1,2 1,3c0,1 0,2 0,3c0,2 0,3 0,4c0,1 0,3 0,4c0,1 0,1 0,2c0,1 0,2 0,3c0,0 0,1 0,2c0,0 0,1 0,1c0,1 0,1 0,1c0,0 0,1 0,1c0,0 0,0 0,1c0,0 0,0 0,0c0,1 0,1 0,1c0,0 1,1 1,1c0,1 0,2 0,3c0,1 0,2 0,3c0,1 0,1 0,1l0,1l-1,-1l0,-1" id="svg_10" stroke-width="45.5" stroke="#000" fill="none"/>
  <path d="m147.5,346c0,0 1,0 2,0c1,0 1,0 2,0c1,0 2,0 3,0c1,0 2,1 4,1c1,0 2,0 4,0c1,0 2,0 3,0c1,0 1,0 1,0c1,0 1,0 1,0c0,0 1,0 1,0c0,0 0,0 1,0c0,0 0,0 0,0c0,0 0,0 0,0c0,0 0,0 0,0c0,-1 0,-1 -1,-1c0,0 0,-1 0,-1c0,0 0,0 0,0c-1,0 -1,-1 -1,-1c0,0 0.707108,-0.292908 0,-1c-0.707108,-0.707092 -1,0 -1,0c0,0 0,-1 -1,-1c0,0 0,0 0,0c0,-1 0,-1 0,-1c-1,0 -0.292892,-0.292908 -1,-1c-0.707108,-0.707092 -0.292892,-0.292908 -1,-1c-0.707108,-0.707092 -1,0 -1,0c-1,-1 -1,-1 -1,-1c0,0 0,0 -1,0c0,0 -0.292892,0.707092 -1,0c-0.707108,-0.707092 0,-1 0,-1c0,0 -1,0 -1,0c0,0 -1,0 -1,0c-1,0 -1,0 -2,0c-1,0 -1,0 -1,0c-1,0 -1,0 -1,0c-1,0 -1,0 -1,0c0,-1 0,-1 0,-2c0,0 -1,-1 -1,-2c0,0 0,-1 0,-2c0,0 0.707108,-0.292908 0,-1c-0.707108,-0.707092 -1,-1 -1,-1c0,-1 0,-2 0,-3c0,0 -1,-1 -1,-2c0,-1 0,-1 0,-1c0,-1 1,-1 1,-1c1,0 1,0 2,1c0,0 0,0 0,0c0,1 0,1 0,1c0,1 0,1 0,1c0,1 1,1 1,1c0,0 0,0 0,0c1,0 1,1 1,1c0,0 1,0 1,1c0,0 1,0 1,0c0,0 1,1 1,1c0,0 1,0 1,0c0,1 0,1 1,1c0,0 0,0 0,1c0,0 0,0 0,0c0,-1 -2,-3 -4,-5l-3,-1" id="svg_11" stroke-width="45.5" stroke="#000" fill="none"/>
  <path d="m541.5,319c0,0 0,0 1,0c0,0 1,0 1,0c0,0 1,0 1,0c0,0 0,0 0,0c0,-1 1,-1 1,-1c0,0 0,0 1,0c0,0 1.076111,-0.61731 2,-1c1.30658,-0.541199 3,-1 4,-2c1,-1 2,-1 4,-1c0,0 1,0 1,0c1,0 1,0 1,0c0,0 0,0 -1,-1l0,0" id="svg_12" stroke-width="45.5" stroke="#000" fill="none"/>
 </g>
</svg>
