<svg width="580" height="400" xmlns="http://www.w3.org/2000/svg">

 <g>

  <path d="m249.5,144c1,0 1,0 1,0c0,0 0,0 0,0c0,0 0,0 0,-1c0,-2 -0.692551,-3.186005 -2,-5c-1.653809,-2.29454 -3.206802,-4.812653 -5,-7c-2.285873,-2.78833 -3.558197,-5.519287 -7,-8c-1.813995,-1.307449 -4,-3 -6,-4c-2,-1 -4,-3 -6,-4c-2,-1 -3.812653,-2.20681 -6,-4c-2.78833,-2.285881 -4.881516,-3.190277 -8,-5c-1.93399,-1.122345 -3.823746,-2.486259 -6,-3c-1.946503,-0.459503 -5,-1 -7,-1c-2,0 -4,0 -5,0c-2,0 -4,0 -5,0c-2,0 -3.186005,0.692551 -5,2c-2.29454,1.653809 -3.173096,2.85273 -4,4c-1.307449,1.813995 -2.486252,3.823746 -3,6c-0.459503,1.946495 0,5 0,8c0,3 1.337494,5.310005 3,8c1.487,2.406006 3.714127,4.21167 6,7c1.793198,2.187347 4,4 6,5c2,1 4.053497,1.540497 6,2c2.176254,0.513748 4,1 6,1c2,0 4,0 6,0c1,0 2.693436,-0.458801 4,-1c1.847763,-0.765366 4.026749,-0.770248 5,-1c2.176254,-0.513748 3.152237,-0.234634 5,-1c1.306564,-0.541199 2.585785,0.414215 4,-1c0.707108,-0.707108 1,-1 2,-1c0,0 0,0 1,0c0,0 0,-1 1,-1c0,0 0,0 1,-1c0,0 1.292892,0.707108 2,0c0.707108,-0.707108 1,-1 1,-1c0,0 1,-1 1,-1c0,0 0,0 1,-1c0,0 -0.707108,-0.292892 0,-1c0.707108,-0.707108 1,0 1,0c0,0 0,0 0,0c0,0 0,0 0,-1c0,0 0.292892,-0.292892 1,-1c0.707108,-0.707108 -0.38269,-3.076126 0,-4c0.541199,-1.306564 1,-2 1,-3c0,0 0,-1 0,-1c0,-1 0,-1 0,-2c0,-1 0,-2 0,-4c0,-2 0,-4 0,-6c0,-2 0,-3 0,-5c0,-1 0.229752,-2.026749 0,-3c-0.513748,-2.176254 -1,-3 -1,-4c0,-1 0,-2 0,-3c0,0 -1,-1 -1,-2c0,-1 -0.61731,-2.076118 -1,-3c-0.541199,-1.306564 -1.458801,-1.693436 -2,-3c-0.38269,-0.923882 -1,-2 -1,-3c0,-1 -0.458801,-1.693436 -1,-3c-0.765366,-1.847755 0,-3 0,-5c0,-1 0,-2 0,-2c0,-1 0,-2 0,-3c0,-1 0,-3 0,-4c0,-1 1,-1 1,-2c0,0 0,0 0,0c1,-1 1.693436,-1.458801 3,-2c0.923874,-0.382683 1,-1 2,-1c1,0 2,0 3,0c2,0 3,0 4,0c1,0 2,0 3,0c1,0 1.076126,0.617317 2,1c1.306564,0.541199 3,2 4,3c1,1 3.173096,2.85273 4,4c1.307465,1.813995 1.234619,3.152245 2,5c0.541199,1.306564 0.61731,3.076118 1,4c0.541199,1.306564 1,2 1,3c0,1 -0.765381,3.152245 0,5c0.541199,1.306564 1,3 1,4c0,2 0,3 0,5c0,1 0,3 0,5c0,1 0,3 0,5c0,1 0,3 0,4c0,1 -0.458801,2.693436 -1,4c-0.765381,1.847755 0.307465,4.186005 -1,6c-0.826904,1.14727 -1.458801,1.693436 -2,3c-0.38269,0.923882 -0.61731,3.076126 -1,4c-0.541199,1.306564 -0.61731,2.076126 -1,3c-0.541199,1.306564 -1,2 -1,2c0,0 0,1 0,1c-1,0 -1.173096,0.852737 -2,2c-1.307449,1.813995 -2,4 -3,5c-1,1 -1,2 -1,3c0,0 0,0 0,0c-1,0 -1,0 -1,0c0,0 0.707108,0.292892 0,1c-0.707108,0.707108 -1,0 -1,0c0,0 0,0 0,0c0,0 0,0 0,0c0,0 0,0 0,0c0,0 0,0 0,0c0,0 0,0 0,0c0,0 0,0 0,0c0,0 0,0 0,0c0,0 0,0 0,0c0,0 0,0 0,0c0,0 0,0 0,0c0,-1 0,-1 0,-1c0,-1 0,-1 0,-2c0,0 0.458801,-0.693436 1,-2c0.38269,-0.923874 0,-2 1,-3c0,0 1,-1 2,-2c0,0 0.61731,-0.076126 1,-1c0.541199,-1.306564 0.693436,-1.458801 2,-2c0.923889,-0.38269 2,-1 3,-2c1,-1 2,-1 3,-2c1,-1 2.076111,-1.617317 3,-2c1.306549,-0.541199 2.693451,-2.458801 4,-3c0.923889,-0.382683 1.076111,-0.617317 2,-1c1.306549,-0.541199 2.076111,-0.617317 3,-1c1.306549,-0.541199 3.053497,-1.540497 5,-2c2.176239,-0.513741 3.878571,-1.493462 7,-2c1.974182,-0.320366 5,-1 7,-1c2,0 4,0 7,0c2,0 4.053497,-0.459503 6,0c2.176239,0.513741 3.693451,2.458801 5,3c1.847748,0.765366 3.852722,1.173096 5,2c1.813995,1.307449 2.852722,2.173096 4,3c1.813995,1.307449 3.418854,3.418854 5,5c1.581146,1.581146 4.173096,2.852737 5,4c1.307465,1.813995 2.770233,3.026749 3,4c0.513733,2.176254 1.458801,1.693436 2,3c0.765381,1.847763 0,3 0,5c0,2 -0.540497,5.053497 -1,7c-0.513733,2.176254 -1.234619,4.152237 -2,6c-0.541199,1.306564 -1,1 -2,2c-1,1 -3,2 -5,3c-2,1 -4,2 -6,3c-2,1 -4,1 -6,2c-2,1 -4,1 -6,1c-2,0 -4,0 -5,0c-2,0 -3,0 -5,0c-2,0 -4,-1 -6,-1c-1,0 -3.076111,-0.61731 -4,-1c-1.306549,-0.541199 -1.852722,-1.173096 -3,-2c-1.813995,-1.307449 -3.186005,-0.692551 -5,-2c-1.147278,-0.826904 -1.693451,-1.458801 -3,-2c-0.923889,-0.38269 -2,-1 -2,-1c-1,0 -1.852722,-1.173096 -3,-2c-1.813995,-1.307449 -3.186005,-1.692551 -5,-3c-1.147278,-0.826904 -2.585785,-0.585785 -4,-2c-0.707092,-0.707108 -0.693451,-1.458801 -2,-2c-0.923889,-0.38269 -1,0 -2,-1c-1,-1 -2,-1 -3,-2c-1,-1 -2,-1 -3,-2c-1,-1 -1.693436,-1.458801 -3,-2c-0.923874,-0.38269 -1,-1 -2,-1c0,0 -1,-1 -1,-1c0,0 -1,0 -1,-1c0,0 0,0 0,0c0,0 0,0 0,0c0,0 0,0 0,0c0,0 0,0 0,0c0,0 0,0 0,0c0,0 0,0 0,0c0,0 0,0 0,0c0,0 0,0 0,0c0,0 0,0 0,0c1,1 1,1 2,1c0,0 0,0 1,1c0,0 0,0 1,0c0,0 0,0 0,0c0,0 -0.707108,0.292892 0,1c0.707108,0.707108 2.076126,0.61731 3,1c1.306564,0.541199 1.292892,2.292892 2,3c0.707108,0.707108 2,1 2,1c1,1 1.292908,2.292892 2,3c0.707092,0.707108 1.61731,1.076126 2,2c0.541199,1.306564 1,3 2,4c1,1 1.486267,1.823746 2,4c0.229767,0.973251 0.458801,1.693436 1,3c0.38269,0.923874 0,2 0,4c0,2 0,3 0,5c0,1 0,3 0,4c0,1 0,2 0,4c0,1 -0.458801,2.693436 -1,4c-0.765381,1.847763 -1.458801,3.693436 -2,5c-0.765381,1.847763 -1.458801,2.693436 -2,4c-0.38269,0.923874 -1.173096,1.852737 -2,3c-1.307465,1.813995 -2.418854,3.418854 -4,5c-1.581146,1.581146 -3.613831,3.296997 -6,6c-1.479843,1.676331 -3.186005,2.692551 -5,4c-1.147263,0.826904 -1.693436,1.458801 -3,2c-0.923874,0.38269 -1,0 -2,0c0,0 0,0 0,0c-1,0 -1,0 -2,0c-1,0 -2.186005,-0.692551 -4,-2c-1.147263,-0.826904 -1.693436,-1.458801 -3,-2c-0.923874,-0.38269 -1,0 -2,-1c0,0 -0.61731,-1.076126 -1,-2c-0.541199,-1.306564 -1.458801,-1.693436 -2,-3c-0.38269,-0.923874 -1,-3 -1,-4c0,-1 0,-3 0,-4c0,-2 0,-4 0,-6c0,-2 0,-4 0,-6c0,-2 0,-3 0,-4c0,-1 -0.38269,-1.076126 0,-2c0.541199,-1.306564 0.234634,-1.152237 1,-3c0.541199,-1.306564 1,-2 1,-4c0,-1 1,-1 1,-1c0,-1 0,-1 0,-1c0,-1 0.458801,-0.693436 1,-2c0.38269,-0.923874 -0.38269,-2.076126 0,-3c0.541199,-1.306564 1,-2 1,-2c1,-1 1,-1 1,-1c0,-1 1,-2 1,-2c0,-1 1,-2 1,-3c0,-1 1,-1 1,-2c0,0 1,-1 1,-1c0,0 1,-1 1,-1c0,-1 1.292892,-1.292892 2,-2c1.414215,-1.414215 1.458801,-1.693436 2,-3c0.38269,-0.923874 1,-2 1,-2c1,-1 1,-2 2,-2c0,0 0,0 1,-1c0,0 0,0 0,0c0,0 0,0 0,0c0,0 0,0 0,0c0,0 0,0 0,0c0,0 0,0 0,0c0,0 0,0 0,0c0,0 0,0 0,1c0,1 0.459503,2.053497 0,4c-0.513748,2.176254 -1.486252,3.823746 -2,6c-0.459503,1.946503 -0.770248,3.026749 -1,4c-0.513748,2.176254 -2,3 -2,4c0,1 -0.234634,2.152237 -1,4c-0.541199,1.306564 -2,2 -3,4c-1,2 -1.346191,2.70546 -3,5c-1.307449,1.813995 -1.692551,3.186005 -3,5c-0.826904,1.147263 -3,2 -4,3c-1,1 -2.076126,1.61731 -3,2c-1.306564,0.541199 -2.076126,1.61731 -3,2c-1.306564,0.541199 -1.292892,1.292892 -2,2c-0.707108,0.707108 -2,0 -2,0c-1,1 -2.076126,0.61731 -3,1c-1.306564,0.541199 -2.026749,0.770248 -3,1c-2.176254,0.513748 -2.693436,1.458801 -4,2c-0.923874,0.38269 -2,0 -3,0c-1,0 -1,0 -2,0c-1,0 -2,0 -2,0c-1,0 -1,0 -2,0c0,0 0,0 0,0c-1,0 -1,0 -1,0c-1,0 -1,0 -1,0c0,0 0,0 -1,0c0,0 0,-1 0,-1c0,0 -1,0 -1,-1c0,0 -1,0 -1,0c0,-1 -1,-1 -1,-1c0,-1 -0.292892,-0.292892 -1,-1c-0.707108,-0.707108 0,-1 0,-2c0,0 -0.292892,-0.292892 -1,-1c-0.707108,-0.707108 0,-1 0,-1c0,-1 0,-1 0,-2c0,0 0,-1 0,-2c0,-1 0,-2 0,-3c0,-1 1,-2 1,-2c0,-1 0,-2 1,-3c0,0 0,0 0,-1c0,-1 0.61731,-1.076126 1,-2c0.541199,-1.306564 1.458801,-1.693436 2,-3c0.38269,-0.923874 0.458801,-1.693436 1,-3c0.38269,-0.923874 0.292892,-0.292892 1,-1c0.707108,-0.707108 0,-1 1,-2c0,0 0,-1 1,-2c0,0 0.292892,-1.292892 1,-2c0.707108,-0.707108 0.693436,-0.458801 2,-1c0.923874,-0.38269 2,-1 3,-2c1,-1 2,-1 3,-2c1,-1 2.076126,-1.61731 3,-2c1.306564,-0.541199 1,-1 2,-1c0,0 1,0 1,0c0,-1 1,-1 1,-1c1,0 1,-1 2,-1c0,0 1,0 2,-1c0,0 1,0 1,0c1,-1 2,-1 2,-1c1,0 1,-1 2,-1c0,0 1,0 1,0c1,0 2,-1 2,-1c1,0 2,-1 2,-1c1,0 1,0 1,0c0,0 1,0 1,0c0,0 0,0 0,0c0,-1 1,-1 1,-1c1,-1 2,-2 3,-2c0,0 0,0 1,0c0,0 0,-1 0,-1c0,0 0,0 1,0l1,-1l0,0l1,0" id="svg_1" fill-opacity="null" stroke-opacity="null" stroke-width="10" stroke="#000" fill="none"/>
 </g>
</svg>
