<svg width="580" height="400" xmlns="http://www.w3.org/2000/svg">

 <g>
  <path d="m282.5,164c0,0 0,-1 0,-2c0,-1 0,-2 0,-2c0,-1 0,-1 0,-1c0,-1 0,-1 0,-1c0,0 0,0 0,-1c0,0 0.292908,0.707108 1,0c0.707092,-0.707108 1,-1 2,-2c1,-1 2,-2 3,-3c2,-2 3.053497,-2.540497 5,-3c2.176239,-0.513748 3,-2 4,-2c1,0 2,-1 3,-1c1,0 2,0 3,0c2,0 3.025818,-0.320358 5,0c3.121429,0.506546 5.186005,1.692551 7,3c2.294525,1.653809 4,4 5,5c2,2 2.692535,5.186005 4,7c0.826904,1.147263 2.486267,3.823746 3,6c0.68927,2.919754 0,6 0,8c0,3 0.430481,7.132996 -1,11c-1.551605,4.194351 -3.793945,9.087433 -6,14c-1.832031,4.079666 -3.648865,9.19577 -6,13c-2.628662,4.25325 -5.794891,8.220215 -9,11c-3.777283,3.276016 -7.953278,6.07193 -11,8c-4.927216,3.118103 -9,4 -14,5c-5,1 -11,2 -16,2c-5,0 -11,0 -16,0c-5,0 -10.087433,-1.79393 -15,-4c-4.079666,-1.832031 -8.404007,-3.41156 -13,-7c-4.458771,-3.481293 -11.545364,-9.584686 -16,-16c-4.598373,-6.622299 -8.5793,-13.701752 -13,-23c-2.312271,-4.86348 -4.694458,-14.082642 -7,-22c-0.88414,-3.036163 -3.496231,-8.907791 -4,-13c-0.610916,-4.96254 0,-10 0,-13c0,-6 1.835068,-10.113297 6,-16c2.887863,-4.081696 8.327179,-10.741829 13,-17c4.314362,-5.778091 8.729614,-11.228851 13,-16c3.772675,-4.21508 7.132004,-6.755318 11,-9c3.118484,-1.809723 8.790253,-3.990242 16,-5c7.922668,-1.109612 17.036377,-0.80825 26,0c11.135162,1.004059 22,5 34,10c12,5 24.86676,12.213898 36,19c11.862488,7.230606 24,14 35,22c11,8 20.546997,15.42955 31,26c8.46698,8.562134 16.388184,17.777115 22,28c2.152039,3.920303 7.488281,13.187057 11,22c6.12735,15.377106 8.277802,19.171997 11,29c3.968262,14.326645 6,20 10,35l2,11l1,22l0,17" id="svg_2" stroke-width="45.5" stroke="#000" fill="none"/>
 </g>
</svg>
