<svg width="580" height="400" class="anims" id="face" xmlns="http://www.w3.org/2000/svg">

 <g>
  <path d="m151,106c-1,0 -1,0 -2,0c0,0 -1,0 -1,0c-2,0 -3,0 -4,0c-1,0 -1.693436,0.458801 -3,1c-0.923874,0.382683 -1.693436,0.458801 -3,1c-0.923874,0.382683 -1.823746,0.486259 -4,1c-0.973251,0.229752 -2.292892,0.292892 -3,1c-1.414215,1.414215 -3,0 -4,1c0,0 -1,0 -1,0c0,1 -1,1 -1,1c0,0 0,0 0,1c0,0 0,0 0,0c0,1 -0.707108,1.292892 0,2c0.707108,0.707108 1,0 1,1c0,0 1,0 1,1c0,0 -0.306564,0.458801 1,1c0.923874,0.382683 1,0 1,0c1,1 2,1 2,1c1,0 1.292892,0.707108 2,0c0.707108,-0.707108 1,-1 2,-2c0,0 1,-1 2,-2c0,0 1,-1 2,-2c1,-1 2.076126,-1.617317 3,-2c1.306564,-0.541199 0.693436,-1.458801 2,-2c0.923874,-0.382683 0.693436,-0.458801 2,-1c0.923874,-0.382683 1.076126,-0.617317 2,-1c1.306564,-0.541199 2,-2 2,-2c1,-1 2,-1 3,-2c0,0 1,-1 1,-1c1,0 1,0 1,-1c0,0 1,0 1,0c0,0 0,0 1,0c0,0 0,1 0,1c0,0 0,0 0,1c0,0 1,0 1,0c0,0 0,0 1,0c0,0 0,0 0,0c1,0 1,0 1,0c0,0 0,1 0,1c1,0 1,0 1,0c0,0 0,0 0,0c1,1 1,1 1,1c0,0 0,0 1,1c0,0 -0.707108,0.292892 0,1c0.707108,0.707108 1,1 1,1c0,1 1,1 1,2c0,0 0,1 1,1c0,0 0.292892,0.292892 1,1c0.707108,0.707108 0,1 0,2c0,0 0,0 0,1c0,1 0.292892,0.292892 1,1c0.707108,0.707108 0,2 0,2c0,1 1,1 1,2c0,1 0.458801,0.693436 1,2c0.38269,0.923882 0.458801,1.693436 1,3c0.38269,0.923882 0,2 1,3c0,0 0,1 0,2c0,1 0,2 0,3c0,1 0,2 0,3c0,0 0,1 0,2c0,1 0,2 0,2c0,1 0,2 0,3c0,1 0.38269,2.076126 0,3c-0.541199,1.306564 -1.458801,1.693436 -2,3c-0.38269,0.923874 -1.458801,1.693436 -2,3c-0.765366,1.847763 -1,3 -2,4c-1,1 -2.173096,2.852737 -3,4c-1.307449,1.813995 -1.173096,2.852737 -2,4c-1.307449,1.813995 -2.917603,3.386871 -4,6c-0.765366,1.847763 -1,3 -2,5c-1,2 -2.770248,5.026749 -3,6c-0.513748,2.176254 -1.692551,3.186005 -3,5c-0.826904,1.147263 -2.173096,2.852737 -3,4c-1.307449,1.813995 -1.173096,2.852737 -2,4c-1.307449,1.813995 -1.61731,3.076126 -2,4c-0.541199,1.306564 -1.458801,1.693436 -2,3c-0.38269,0.923874 0,2 -1,3c0,0 0,1 0,2c0,1 0,1 0,2c0,0 0,1 0,1c0,1 0,1 0,2c0,0 0.076126,0.61731 1,1c1.306564,0.541199 1.292892,0.292892 2,1c0.707108,0.707108 1,1 1,1c0,0 1,0 1,0c0,1 1,1 2,1c0,0 1,1 2,1c0,0 1,0 2,0c1,0 1,0 2,0c1,0 2.292892,0.707108 3,0c0.707108,-0.707108 1.292892,-0.292892 2,-1c0.707108,-0.707108 1.076126,-1.61731 2,-2c1.306564,-0.541199 3.053497,-1.540497 5,-2c2.176254,-0.513748 4.693436,-1.458801 6,-2c2.771637,-1.148056 5,-1 8,-1c3,0 6.053497,-0.540497 8,-1c2.176254,-0.513748 4.053497,-0.540497 6,-1c2.176254,-0.513748 4.053497,-1.540497 6,-2c2.176254,-0.513748 5.012909,-1.839813 6,-2c3.121445,-0.506546 5.025818,-1.679642 7,-2c3.121445,-0.506546 4.823746,-1.486252 7,-2c1.946503,-0.459503 2.823746,-0.486252 5,-1c0.973251,-0.229752 2,0 3,0c1,0 1,0 2,0c0,0 1,0 1,0c0,0 -0.707108,-0.292892 0,-1c0.707108,-0.707108 1,0 1,0c0,0 0,-1 0,-1c0,0 0,0 0,-1c0,0 0,0 -1,-1c0,0 0,-1 0,-1c-1,0 -0.61731,-1.076126 -1,-2c-0.541199,-1.306564 -1,-2 -2,-4c-1,-2 -2.288589,-4.868286 -4,-9c-1.210144,-2.92157 -2.569504,-8.132996 -4,-12c-0.775803,-2.097168 -2.493454,-5.878555 -3,-9c-0.320358,-1.974182 -1.486252,-3.823746 -2,-6c-0.229752,-0.973251 0.38269,-2.076126 0,-3c-0.541199,-1.306564 -0.292892,-2.292892 -1,-3c-0.707108,-0.707108 -1,-1 -1,-2c0,-1 0,-2 0,-3c0,-1 -1,-1 -1,-2c0,-1 0,-2 0,-3c0,-1 0,-2 0,-3c0,-1 0,-2 0,-2c0,-1 0,-2 0,-2c0,0 0,-1 0,-1c0,-1 0,-2 0,-3c0,-1 1,-2 1,-3c0,-1 0.692551,-3.186005 2,-5c0.826904,-1.14727 1.692551,-2.186005 3,-4c0.826904,-1.14727 1.076126,-1.617317 2,-2c1.306564,-0.541199 2,-2 2,-2c2,-1 3.693436,-2.458801 5,-3c1.847763,-0.765366 5,-2 6,-2c3,0 4.907791,-1.496223 9,-2c1.985016,-0.24437 5,0 7,0c2,0 4,0 7,0c1,0 2,0 4,0c1,0 1.292908,-0.707108 2,0c0.707092,0.707108 1,2 1,2c0,1 -0.38269,1.076118 0,2c0.541199,1.306564 1,1 1,2c0,1 1,2 1,3c0,1 1,2 1,2c0,1 0.292908,1.292892 1,2c0.707092,0.707108 -0.707092,2.292892 0,3c0.707092,0.707108 1,1 1,2c0,0 0,1 0,1c0,1 0,2 0,2c0,1 0,2 0,3c0,1 0,2 0,3c0,1 -1,1 -1,1c0,1 -1,1 -2,1c-1,0 -2,0 -2,0c-1,0 -1,0 -2,0c0,0 0,0 -1,0c0,0 0,0 -1,0c0,0 -1,0 -1,0c-1,0 -2,0 -3,0c-1,0 -2,0 -4,0c-2,0 -3,0 -5,0c-1,0 -2,0 -4,0c-1,0 -3.076126,0.38269 -4,0c-1.306564,-0.541199 -2,-1 -3,-1c-1,0 -2.152237,0.765366 -4,0c-1.306564,-0.541199 -2,-1 -3,-1c-1,0 -2,0 -3,0c-1,0 -1,0 -2,0c0,0 -1,0 -1,0c-1,0 -1,0 -2,0c0,0 0,0 -1,-1c0,0 -1,0 -1,0c0,0 -1,0 -1,0c0,0 -1,0 -1,0c0,0 -1,0 -1,0c0,0 -0.292892,-0.707108 -1,0c-0.707108,0.707108 0,1 0,1c0,0 0,0 0,1c0,0 0,0 0,0c0,1 0,1 0,1c0,0 1,1 1,1c0,0 0,0 1,0c0,0 -0.707108,0.292892 0,1c0.707108,0.707108 1,0 2,0c0,0 1,1 1,1c1,0 1,1 2,1c0,0 0.292892,0.292892 1,1c0.707108,0.707108 1.292892,0.292892 2,1c0.707108,0.707108 0,1 1,2c0,0 0.292892,1.292892 1,2c0.707108,0.707108 1.292892,0.292892 2,1c0.707108,0.707108 0.458801,0.693436 1,2c0.38269,0.923874 0.61731,1.076126 1,2c0.541199,1.306564 0.61731,1.076126 1,2c0.541199,1.306564 1,2 1,2c1,1 0.292892,2.292892 1,3c0.707108,0.707108 1.458801,0.693436 2,2c0.38269,0.923874 0,1 1,2c0,0 0,1 0,1c1,1 1,2 1,2c1,0 1,1 1,1c0,1 1,1 1,2c0,0 0,0 0,0c0,1 1,1 1,1c0,0 0,1 0,1c0,0 1,0 1,0c0,0 0,1 1,1c0,0 1,0 1,1c0,0 1,0 1,0c0,0 0,0 0,0c0,-1 0,-1 0,-1c0,0 0,-1 0,-1c0,-1 0,-1 0,-1c0,-1 0,-1 0,-1c0,0 0,-1 0,-1c0,-1 0,-1 0,-1c1,0 1,0 1,-1c0,0 0,0 0,0c0,-1 0,-1 -1,-1c0,0 0,0 0,0c-1,0 -1,-1 -1,-1c-1,0 -1,0 -1,0c0,0 -1,0 -1,0c0,0 -1,-1 -1,-1c0,0 0,0 -1,0c0,0 0,0 0,0c-1,0 -1,-1 -1,-1c-1,0 -1.292892,0.707108 -2,0c-0.707108,-0.707108 0,-1 0,-1c0,0 -1,0 -1,0c0,0 0,-1 0,-1c-1,0 -1,0 -1,0c0,-1 -1,-1 -1,-1c-1,0 -0.292892,-0.292892 -1,-1c-0.707108,-0.707108 -1,0 -1,0c0,0 0,0 0,1c0,0 0,0 0,1c0,0 0,1 0,1c0,0 0,1 0,1c0,1 1,1 1,2c0,0 1,1 1,2c0,1 0.61731,1.076126 1,2c0.541199,1.306564 0.292892,1.292892 1,2c0.707108,0.707108 1,1 1,1c0,1 0,2 0,2c0,1 0,2 0,2c0,1 1,2 1,3c0,1 0,2 0,3c0,1 0,2 0,4c0,1 0,2 0,3c0,1 0,2 0,3c0,1 0,2 0,3c0,1 0.38269,2.076126 0,3c-0.541199,1.306564 -1,2 -1,3c0,2 -0.770248,3.026749 -1,4c-0.513748,2.176254 -0.692551,4.186005 -2,6c-0.826904,1.147263 -1.486252,2.823746 -2,5c-0.459503,1.946503 -0.234634,3.152237 -1,5c-0.541199,1.306564 -1,3 -2,5c-1,2 -1,3 -2,5c-1,2 -2.486252,2.823746 -3,5c-0.459503,1.946503 -1.173096,3.852737 -2,5c-1.307449,1.813995 -1.692551,3.186005 -3,5c-0.826904,1.147263 -0.692551,2.186005 -2,4c-0.826904,1.147263 -2,2 -3,3c-1,1 -2,2 -3,3c-1,1 -2.076126,1.61731 -3,2c-1.306564,0.541199 -1.097885,1.824432 -3,3c-0.850647,0.525726 -2.026749,0.770248 -3,1c-2.176254,0.513748 -3.152237,1.234634 -5,2c-1.306564,0.541199 -2.693436,1.458801 -4,2c-1.847763,0.765381 -3,1 -5,1c-2,0 -3,1 -4,1c-1,0 -2,1 -3,1c-1,0 -1.693436,0.458801 -3,1c-0.923874,0.38269 -1.693436,0.458801 -3,1c-0.923874,0.38269 -1.693436,0.458801 -3,1c-0.923874,0.38269 -1.823746,0.486267 -4,1c-1.946503,0.459503 -3.026749,0.770233 -4,1c-2.176254,0.513733 -3.152237,0.234619 -5,1c-1.306564,0.541199 -3.292892,1.292908 -4,2c-0.707108,0.707092 -0.693436,1.458801 -2,2c-0.923874,0.38269 -2,1 -2,1c-1,1 -1,1 -2,2c0,0 -1.292892,0.292908 -2,1c-0.707108,0.707092 -0.292892,1.292908 -1,2c-0.707108,0.707092 -1,2 -1,2c0,1 -0.292892,1.292908 -1,2c-0.707108,0.707092 -1,1 -1,2c0,0 0,1 0,1c-1,1 -1,1 -1,2c0,1 -0.458801,0.693451 -1,2c-0.38269,0.923889 0.38269,2.076111 0,3c-0.541199,1.306549 -1,1 -1,2c0,1 -1,1 -1,2c0,0 0,1 0,1c0,1 -1,1 -1,2c0,0 0,0 0,0c0,1 0,1 -1,1c0,0 0,0 0,0c0,0 0,0 0,0c0,0 0,0 0,0c1,0 1,0 1,0c0,0 1,0 1,0c0,0 0,0 1,0c0,0 0,0 0,0c0,1 0,1 0,1c0,0 0.292892,-0.292908 1,-1c0.707108,-0.707092 0,-1 0,-1c1,-1 1.474274,-1.149353 2,-2c1.175568,-1.9021 2.70546,-2.346191 5,-4c1.813995,-1.307465 5,-3 8,-5c3,-2 5,-3 8,-5c3,-2 4.881516,-3.190277 8,-5c1.93399,-1.122345 4.186005,-1.692535 6,-3c3.441803,-2.480713 4.372009,-2.385101 8,-5c2.29454,-1.653809 3.085815,-2.420441 5,-3c3.450851,-1.04483 5,-2 7,-3c2,-1 2.823746,-1.486267 5,-2c0.973251,-0.229767 3,0 4,0c1,0 1,0 2,0c1,0 2,0 3,0c1,0 2,0 3,0c1,0 1.693436,-0.458801 3,-1c0.923874,-0.38269 2,0 3,0c1,0 2,0 3,0c2,0 3,0 4,0c1,0 3,0 4,0c1,0 2,0 3,0c1,0 2,0 3,0c0,0 1,1 2,1c0,0 1,0 1,0c1,0 1,1 2,1c0,0 0,0 1,0c0,0 1,1 1,1c1,0 1.292892,-0.707092 2,0c0.707108,0.707092 0,1 1,1c0,0 1,0 1,0c0,0 -0.707108,0.292908 0,1c0.707108,0.707092 1,0 1,0c0,0 1,0 1,0c0,0 -1,0 -3,-2l-1,-2l0,-1" id="face" class="anims" stroke-width="1.5" fill="none"/>
 </g>
</svg>
