<svg width="580" height="400" xmlns="http://www.w3.org/2000/svg">

 <g>

  <path d="m56.5,328c0,-1 -0.181259,-3.00412 0,-7c0.500515,-11.034027 4.982903,-19.607422 7,-35c0.779594,-5.949127 4.110207,-21.199585 7,-32c3.842445,-14.360901 5.755486,-16.803818 8,-27c1.52018,-6.905731 3.584808,-13.168243 7,-21c1.78759,-4.099335 2.755318,-7.132004 5,-11c1.809723,-3.118484 2.714119,-4.21167 5,-7c0.896599,-1.093674 1,-2 3,-4c1,-1 1,-1 2,-1c0,0 0,0 1,0c0,0 0.692551,1.186005 2,3c0.826904,1.147263 2.520164,3.323669 4,5c2.386162,2.703003 5.222733,3.723984 9,7c3.205116,2.779785 10.776276,9.296936 16,13c7.69632,5.455872 15.048157,9.938522 24,17c10.05455,7.93132 19.9561,15.058975 28,21c10.940887,8.080658 20.116043,13.837067 30,21c4.04863,2.934052 12.584686,9.545349 19,14c6.622299,4.598389 12.310013,6.337494 15,8c4.812012,2.973999 7,6 9,7c2,1 4.458801,1.693451 5,3c0.38269,0.923889 1,1 1,1c0,0 0,0 1,0c0,0 0,0 0,0c0,-1 0.42215,-2.190735 2,-6c2.231415,-5.387085 7.492798,-11.322388 14,-21c5.579895,-8.298492 15.319275,-20.774734 23,-32c9.398438,-13.735687 13.493713,-18.657349 21,-30c6.435883,-9.725189 18,-25 24,-33c6,-8 11.447968,-15.445465 18,-23c2.779785,-3.205124 11.23172,-10.778564 16,-16c5.266754,-5.767258 7.222717,-7.723984 11,-11c2.136749,-1.853195 4,-4 6,-5c0,0 1,0 1,0c0,0 1,0 1,0c0,1 0,2 0,5c0,1 0,4 1,6c2,4 4,7 6,11c2,4 4.194092,8.88855 7,14c3.228058,5.880447 6.177551,11.914474 9,18c3.204315,6.908859 5.473297,11.293655 9,17c2.628662,4.25325 6.190277,8.881516 8,12c1.122345,1.93399 3,5 5,9c1,2 2.173096,3.852737 3,5c1.307465,1.813995 1.458801,2.693436 2,4c0.38269,0.923874 0.61731,2.076126 1,3c0.541199,1.306564 1.458801,1.693436 2,3c0.38269,0.923874 1,2 1,3c0,0 1,1 1,2c0,0 0,0 0,0l0,-4l-2,-4l-12,-5" id="svg_3" stroke-width="30.5" stroke="#000" fill="none"/>
 </g>
</svg>
