<svg width="580" height="400" xmlns="http://www.w3.org/2000/svg">

 <g>
  <path d="m307.5,104c0,-1 0,-1 -1,-1c0,0 -1.292908,0.707108 -2,0c-0.707092,-0.707108 -0.693451,-1.458801 -2,-2c-0.923889,-0.382683 -2.076111,0.382683 -3,0c-1.306549,-0.541199 -1.823761,-1.486259 -4,-2c-0.973236,-0.229752 -2.693451,-1.458801 -4,-2c-1.847748,-0.765366 -4.026764,-0.770248 -5,-1c-2.176239,-0.513741 -3.026764,-1.770248 -4,-2c-2.176239,-0.513741 -3,-1 -5,-1c-1,0 -2,-1 -3,-1c-2,0 -3,0 -4,0c-1,0 -3,0 -4,0c-1,0 -3,0 -5,0c-1,0 -3.152252,-0.765366 -5,0c-1.306564,0.541199 -2.852737,1.173096 -4,2c-1.813995,1.307449 -3.152237,1.234634 -5,2c-1.306564,0.541199 -2.186005,1.692551 -4,3c-1.147263,0.826904 -2.21167,1.714119 -5,4c-2.187347,1.79319 -3,3 -6,6c-2,2 -4.519287,3.558189 -7,7c-1.307449,1.813995 -4,6 -6,9c-2,3 -2.714127,6.21167 -5,9c-0.896591,1.093674 -2.337494,4.310013 -4,7c-1.487,2.406006 -2.789856,4.07843 -4,7c-0.855713,2.065857 -1.519455,6.038742 -2,9c-0.506546,3.121445 -1.496231,5.907791 -2,10c-0.366547,2.977524 0,8 0,11c0,5 0,9 0,13c0,4 0,8 0,13c0,4 1,8 2,13c1,5 1.691238,9.071793 3,14c0.811661,3.056335 2.541367,7.702667 4,11c1.668015,3.770645 2.789856,8.07843 4,11c1.711411,4.131714 4,8 6,12c2,4 4.75531,8.132019 7,12c1.809723,3.118469 3.692551,6.186005 5,8c3.307617,4.589081 6,7 8,9c3,3 5.222733,4.723999 9,8c3.205124,2.779785 7,6 10,9c3,3 6.06601,4.877655 8,6c3.118469,1.809723 6,4 8,5c2,1 5.769348,3.303223 7,4c3.587921,2.031464 5.022491,1.633453 8,2c4.092224,0.503784 5.080261,0.31073 8,1c2.176239,0.513733 6,1 8,1c2,0 7,0 10,0c2,0 6,0 10,0c5,0 9.907776,-1.496216 14,-2c3.970032,-0.488739 9,-1 13,-2c4,-1 7.041321,-1.847229 11,-3c3.036163,-0.884125 6.071808,-2.691254 11,-4c3.056335,-0.811646 8,-3 12,-5c4,-2 7,-4 11,-6c4,-2 6.222717,-3.723999 10,-7c2.136749,-1.85318 3.877655,-5.06601 5,-7c1.809723,-3.118469 3.789856,-7.07843 5,-10c1.711426,-4.131714 3.497559,-6.925781 4,-12c0.197083,-1.990265 1,-5 2,-8c1,-3 1,-6 1,-7c0,-2 0,-3 0,-4c0,-1 0,-1 0,-1c0,-1 0,-1 0,-1c0,0 0,-1 0,-1c0,-1 0,-2 0,-3c0,-2 0,-4 0,-5c0,-3 0,-5 0,-7c0,-1 0,-3 0,-4c0,-2 -0.486267,-4.823746 -1,-7c-0.68927,-2.919754 -1,-6 -1,-7c0,-3 -1.486267,-5.823746 -2,-8c-0.459503,-1.946503 -0.540497,-4.053497 -1,-6c-0.513733,-2.176254 -1.839813,-4.012909 -2,-5c-0.506531,-3.121445 -1.692535,-6.186005 -3,-8c-0.826904,-1.147263 -1.540497,-4.053497 -2,-6c-0.513733,-2.176254 -2,-4 -3,-5c-1,-1 -1.692535,-3.186005 -3,-5c-1.653809,-2.29454 -2.692535,-4.186005 -4,-6c-1.653809,-2.29454 -4,-5 -6,-7c-1,-1 -3,-4 -5,-6c-2,-2 -3.385101,-4.372009 -6,-8c-0.826904,-1.147263 -2.418854,-3.418854 -4,-5c-1.581146,-1.581146 -3,-3 -4,-4c-2,-2 -2.693451,-3.458801 -4,-4c-0.923889,-0.38269 -2.186005,-0.692551 -4,-2c-1.147278,-0.826904 -1.593994,-1.513 -4,-3c-2.690002,-1.662506 -3.852722,-2.173096 -5,-3c-1.813995,-1.307449 -3.418854,-2.418861 -5,-4c-1.581146,-1.581139 -3,-1 -4,-2c-1,-1 -2,-2 -2,-2c-1,0 -1,-1 -2,-1c0,0 -1,-1 -1,-1c-1,0 -1,0 -1,0c-1,0 -1,-1 -1,-1c-1,0 -1,0 -2,0c0,0 0,0 -1,0c0,0 -1,0 -1,0c0,-1 -1,-1 -2,-1c0,0 -1,0 -1,0c-1,-1 -2,-1 -2,-1c-1,0 -0.693451,-0.458801 -2,-1c-0.923889,-0.382683 -1,0 -2,0c0,0 -1,-1 -1,-1c-1,0 -1,0 -2,0c0,0 -0.292908,-0.292892 -1,-1c-0.707092,-0.707108 -1.292908,0.707108 -2,0c-0.707092,-0.707108 -1,-1 -1,-1c0,0 -1,0 -1,0c0,0 -0.292908,0.707108 -1,0c-0.707092,-0.707108 0,-1 0,-1c-1,0 -1,0 -1,-1c0,0 -1,0 -1,0c-1,-1 -1,-1 -1,-1c-1,0 -1,-1 -1,-1c-1,0 -1,0 -2,-1c0,0 -0.292908,-0.292892 -1,-1c-0.707092,-0.707108 -1,0 -2,0c0,0 0,-1 -1,-1c0,0 0,0 0,0c0,0 -1,0 -1,0c0,0 0,0 -1,0c0,0 -1,0 -1,0c0,0 -1,0 -1,0c0,-1 0,-1 -1,-1c0,0 0,0 -1,0c0,0 0,0 0,0c-1,0 -1,-1 -1,-1c0,0 -0.906342,-1.103401 -2,-2c-2.78833,-2.285881 -8,-6 -16,-12l-4,-3l-6,-3l-3,-2" id="svg_1" stroke-width="58" stroke="#000" fill="none"/>
  <polyline stroke-linecap="round" id="svg_2" points="-123.5,3 -122.5,3 " stroke-width="58" stroke="#000" fill="none"/>
 </g>
</svg>
