<svg width="580" height="400" xmlns="http://www.w3.org/2000/svg">

 <g>

  <path stroke-width="53" d="m415.5,120c0,0 -1.458801,-0.693436 -2,-2c-0.765381,-1.847755 -1,-2 -2,-3c-1,-1 -2,-2 -3,-3c-1,-1 -1,-1 -2,-1c-1,0 -2,-1 -3,-1c-1,0 -0.693451,-0.458801 -2,-1c-0.923889,-0.382683 -0.693451,-0.458801 -2,-1c-0.923889,-0.382683 -1.292908,-0.292892 -2,-1c-0.707092,-0.707108 -2,0 -3,0c0,0 -1,0 -2,0c0,0 -1,0 -2,0c-1,0 -2,0 -3,0c-2,0 -3.076111,0.617317 -4,1c-1.306549,0.541199 -3.152252,1.234634 -5,2c-1.306549,0.541199 -3,2 -4,3c-1,1 -2.458801,0.693436 -3,2c-0.38269,0.923882 -1,2 -1,2c-1,1 -0.234619,2.152245 -1,4c-0.541199,1.306564 -0.61731,2.076118 -1,3c-0.541199,1.306564 -1,2 -1,4c0,1 0,2 0,4c0,1 0,3 0,4c0,2 0.61731,3.076126 1,4c0.541199,1.306564 2,2 2,2c1,1 2,2 3,3c1,1 2,2 5,4c0,0 3,2 4,3c2,2 3.21167,3.714127 6,6c1.093658,0.896591 2.705475,3.346191 5,5c1.813995,1.307449 3,2 5,4c1,1 2,3 3,4c1,1 2,3 3,4c1,1 1.692535,2.186005 3,4c0.826904,1.147263 1,2 2,3c1,1 0.61731,2.076126 1,3c0.541199,1.306564 0.770233,2.026749 1,3c0.513733,2.176254 1,3 1,5c0,1 0,4 0,6c0,2 0,4 0,5c0,2 0,3 0,5c0,1 0,2 0,3c0,1 0,2 -1,3c-1,1 -1,2 -1,2c-1,1 -1.693451,2.458801 -3,3c-0.923889,0.38269 -1,1 -2,2c-1,1 -2.103394,1.906326 -3,3c-2.285889,2.78833 -4,4 -5,5c-1,1 -1.852722,2.173096 -3,3c-1.813995,1.307449 -3,2 -4,3c-1,1 -2.418854,1.418854 -4,3c-1.581146,1.581146 -2,2 -4,4c-1,1 -1.693451,2.458801 -3,3c-0.923889,0.38269 -2.076111,0.61731 -3,1c-1.306549,0.541199 -2.076111,0.61731 -3,1c-1.306549,0.541199 -2,1 -3,1c-1,0 -2,1 -3,1c-1,0 -2.585785,-1.414215 -4,0c-0.707092,0.707108 -2,1 -3,1c-1,0 -1.823761,0.486252 -4,1c-0.973236,0.229752 -2.053497,-0.459503 -4,0c-2.176239,0.513748 -3.152252,0.234634 -5,1c-1.306549,0.541199 -3.053497,0.540497 -5,1c-2.176239,0.513748 -4.878571,1.493454 -8,2c-0.987091,0.160187 -4.053497,0.540497 -6,1c-2.176239,0.513733 -4.823761,2.486267 -7,3c-1.946503,0.459503 -3.152252,0.234619 -5,1c-1.306549,0.541199 -2.076111,1.61731 -3,2c-1.306549,0.541199 -1.292908,0.292908 -2,1c-0.707092,0.707092 0.38269,1.076111 0,2c-0.541199,1.306549 -1,1 -1,1c0,1 -0.292908,0.292908 -1,1c-0.707092,0.707092 -0.292908,0.292908 -1,1c-0.707092,0.707092 -1,1 -1,1c0,0 -1,0 -1,0c-1,0 -1,0 -2,0c0,0 -1,0 -2,0c-1,0 -2.076111,0.38269 -3,0c-1.306549,-0.541199 -3.076111,-1.61731 -4,-2c-1.306549,-0.541199 -2.076111,-1.61731 -3,-2c-2.613129,-1.082397 -2.852722,-3.173096 -4,-4c-1.813995,-1.307465 -3.173096,-1.852722 -4,-3c-1.307465,-1.813995 -2,-3 -3,-4c-1,-1 -1.61731,-3.076126 -2,-4c-0.541199,-1.306564 -1.61731,-3.076126 -2,-4c-0.541199,-1.306564 -1.458801,-2.693436 -2,-4c-0.38269,-0.923874 -0.458801,-2.693436 -1,-4c-0.38269,-0.923874 -0.486267,-1.823746 -1,-4c-0.459503,-1.946503 0,-3 0,-5c0,-2 -1,-4 -1,-5c0,-2 0,-3 0,-4c0,-2 0,-3 0,-4c0,-1 0,-2 0,-3c0,-1 0,-1 0,-2c0,-1 0,-3 0,-4c0,-1 0,-3 0,-3c0,-1 0,-2 0,-3c0,0 0,-1 0,-2c0,0 1,-1 1,-2c0,-1 1,-2 1,-3c0,-1 -0.38269,-1.076126 0,-2c0.541199,-1.306564 1,-1 1,-2c0,0 1,0 1,-1c0,0 0.292908,0.707108 1,0c0.707092,-0.707108 0,-1 0,-1c0,-1 0,-1 0,-2c0,-1 0,-3 0,-4c0,-3 -1.582428,-8.790726 -6,-22c-2.30899,-6.904251 -4.761414,-12.14183 -9,-19c-3.791107,-6.134125 -8,-13 -12,-17c-5,-5 -10.19577,-8.648857 -14,-11c-4.25325,-2.628654 -8.805649,-6.44841 -13,-8c-3.867004,-1.430496 -6.823746,-2.486259 -9,-3c-2.919754,-0.689262 -6,0 -8,0c-2,0 -4.152237,-0.765366 -6,0c-2.613129,1.08239 -4,4 -5,5c-3,3 -4.190277,4.881523 -6,8c-1.122345,1.933998 -3,5 -5,8c-2,3 -4.79393,8.087433 -7,13c-4.580093,10.199158 -7.194092,14.88855 -10,20c-2.152039,3.920303 -2.569504,9.132996 -4,13c-1.55159,4.194351 -3,9 -4,15c-1,6 -2.497559,11.925797 -3,17c-0.295609,2.985397 0.329926,7.013626 0,11c-0.501709,6.062042 -1,9 -1,12c0,4 0,7 1,10c1,3 2.79393,7.087433 5,12c1.832031,4.079666 4.714127,8.21167 7,11c1.793198,2.187347 4.41156,5.404022 8,10c0.870331,1.114685 5,5 7,7c2,2 4,5 7,9c3,4 8.278046,9.734283 14,16c5.266754,5.767273 12.11734,12.887085 15,16c6.264221,6.764587 11.232742,10.733246 17,16c2.088577,1.907318 6.450485,5.4505 9,8c2.549515,2.5495 4.558197,5.519287 8,8c1.813995,1.307465 3.346191,1.705475 5,4c1.307465,1.813995 2,3 3,4c1,1 2,2 2,3c0,0 1,0 1,1c0,0 -1,0 -5,0l-3,0" id="svg_1" fill-opacity="null" stroke-opacity="null" stroke="#000" fill="none"/>
 </g>
</svg>
