<svg width="580" height="400" xmlns="http://www.w3.org/2000/svg">

 <g>
  <path d="m168.5,162c0,0 0,0 1,0c2,0 6.025818,-1.320358 8,-1c6.242889,1.013077 8.132996,2.569504 12,4c4.194351,1.55159 8.19075,4.42215 12,6c5.3871,2.231415 8.19577,4.648865 12,7c4.25325,2.628662 8.305405,4.361679 13,7c4.358826,2.449631 9.212601,5.671219 14,9c5.257172,3.655426 12.047348,7.937881 16,11c5.061859,3.921417 6.625305,5.41362 11,9c2.78833,2.285873 6,4 7,5l0,1l0,0" id="svg_1" fill-opacity="null" stroke-opacity="null" stroke-width="16" stroke="#000" fill="none"/>
  <path d="m200.5,262c0,0 0,-1 0,-3c0,-2 0,-4 0,-8c0,-5 -0.559235,-9.017395 0,-18c0.500961,-8.046677 2.813583,-15.005798 3,-18c0.500961,-8.046677 3.414795,-14.907593 5,-23c2.718597,-13.878372 5.539001,-24.11499 8,-33c3.376465,-12.19014 5.378983,-21.25621 11,-34c1.804794,-4.091782 4.720047,-14.086113 7,-21c2.675781,-8.114197 4.475449,-13.861938 6,-20c1.466263,-5.903397 2.376694,-10.887321 4,-17c1.308762,-4.9282 3,-10 5,-15c2,-5 4,-10 5,-12l1,-4l2,-4" id="svg_2" fill-opacity="null" stroke-opacity="null" stroke-width="16" stroke="#000" fill="none"/>
  <path d="m437.5,254c1,0 3.941437,2.09079 7,4c11.784882,7.356384 18.876251,13.157166 29,21c3.952667,3.062103 7.222717,5.723999 11,9c3.205109,2.779785 6.222717,5.723999 10,9c1.068359,0.926605 3,3 5,5c3,3 5,5 8,8c3,3 4.418854,4.418854 6,6c1.581116,1.581146 2,1 2,2l0,0" id="svg_3" fill-opacity="null" stroke-opacity="null" stroke-width="16" stroke="#000" fill="none"/>
  <path d="m435.5,327c1,0 0.755646,-1.014984 1,-3c0.503784,-4.092224 2.795685,-9.091156 6,-16c3.763275,-8.114044 7.388184,-14.7771 13,-25c4.304077,-7.840607 8.207642,-16.873901 13,-25c5.230072,-8.868271 8.957397,-17.023331 15,-28c4.965088,-9.019318 10,-19 13,-23l4,-9l2,-3l7,-10" id="svg_5" fill-opacity="null" stroke-opacity="null" stroke-width="16" stroke="#000" fill="none"/>
 </g>
</svg>
