<svg width="580" height="400" xmlns="http://www.w3.org/2000/svg">

 <g>

  <path d="m206.5,233c0,-1 0.689255,-2.080246 0,-5c-0.513748,-2.176254 -1,-5 -1,-9c0,-3 0,-7 0,-10c0,-4 0,-7 0,-10c0,-3 0,-9 0,-12c0,-3 -0.499237,-5.958466 -1,-15c-0.110596,-1.996933 -1.486252,-5.823746 -2,-8c-0.459503,-1.946503 -0.679642,-4.025818 -1,-6c-0.506546,-3.121445 -1,-6 -1,-9c0,-3 -1,-5 -1,-7c0,-1 0,-2 -1,-3c0,0 -0.173096,-1.852737 -1,-3c-1.307449,-1.813995 -1.493454,-3.878555 -2,-7c-0.320358,-1.974174 -0.61731,-4.076118 -1,-5c-0.541199,-1.306564 -1,-1 -1,-2c0,0 -1,-1 -1,-1c0,-1 0.707108,-1.292892 0,-2c-0.707108,-0.707108 -1,0 -1,0c0,-1 0,-1 0,-1c0,0 0,0 0,0c0,0 0,0 0,0c0,0 0,0 0,0c0,0 0,1 1,2c1,1 3.718994,3.310211 7,6c2.78833,2.285873 6.310013,3.337494 9,5c2.406006,1.487 5.06601,3.877655 7,5c3.118484,1.809723 4.881516,4.190277 8,6c1.93399,1.122345 4,3 6,5c1,1 3.173096,2.852737 4,4c1.307449,1.813995 2.173096,2.852737 3,4c1.307449,1.813995 2,3 3,4c1,1 2,2 3,3c1,1 1.292892,0.292892 2,1c0.707108,0.707108 0,1 0,1c0,0 0,0 0,0c0,0 1,0 1,0c0,0 0.076126,0.38269 1,0c1.306564,-0.541199 2.418854,-1.418854 4,-3c1.581146,-1.581146 3,-5 6,-8c3,-3 6,-6 9,-9c3,-3 6.723999,-6.222733 10,-10c2.779785,-3.205124 5.723999,-7.222733 9,-11c2.779785,-3.205116 4.418854,-6.418861 6,-8c1.581146,-1.581139 3,-2 4,-3c0,0 1,-1 1,-1c1,-1 1,-1 2,-2c0,0 1,0 1,0c0,0 0,0 0,0c0,-1 0,-1 0,-1c0,0 0,0 0,0c0,0 0,0 0,0c0,0 0,0 0,0c0,0 0.474274,0.149345 1,1c1.175568,1.902115 3.206818,3.81266 5,6c2.285889,2.788322 3.513,5.593994 5,8c1.662506,2.689995 2.415894,4.761078 4,8c1.389343,2.840729 2.513,5.593994 4,8c1.662506,2.689987 3.415894,4.761078 5,8c1.389343,2.840729 3.346191,5.70546 5,8c1.307465,1.813995 1.292908,2.292892 2,3c0.707092,0.707108 1,0 1,0c0,0 0,0 0,0c0,0 0,0 0,0c0,0 -0.147278,-0.173096 1,-1c1.813995,-1.307449 3.210052,-2.850754 6,-7c3.253601,-4.838806 5,-7 7,-10c2,-3 5,-6 8,-10c3,-4 5.723999,-8.222733 9,-12c2.779785,-3.205116 5,-5 7,-7c1,-1 1,-1 2,-2c0,0 0,0 1,0c0,0 0,-1 1,-1c0,0 0,0 0,0c0,0 0,0 1,0c0,0 0,0 0,0c0,1 0.540497,3.053505 1,5c0.513733,2.176254 1.496216,5.907784 2,10c0.488739,3.970032 1.496216,7.907791 2,12c0.610931,4.96254 1,9 2,13c1,4 1.691254,8.071793 3,13c1.623322,6.112686 3,11 4,17c1,6 2.548615,10.769928 4,15c1.654816,4.823029 1.633453,9.022476 2,12c0.503784,4.092209 1,7 2,11c1,4 1,7 2,9c1,2 1.458801,3.693436 2,5c0.38269,0.923874 1.486267,2.823746 2,5c0.459503,1.946503 1.458801,3.693436 2,5c0.38269,0.923874 0,2 0,2c0,0 0,0 0,0c0,0 0,0 0,0c0,0 0,0 0,0c0,0 0,0 0,0c0,0 0,0 0,0c0,0 -1,0 -1,0c0,0 -0.076111,0.38269 -1,0c-1.306549,-0.541199 -1.693451,-1.458801 -3,-2c-0.923889,-0.38269 -2.026764,0.229752 -3,0c-2.176239,-0.513748 -3,-1 -5,-1c-2,0 -4,0 -6,0c-2,0 -5,0 -7,0c-3,0 -6,0 -10,0c-3,0 -6,0 -9,0c-4,0 -6,1 -9,1c-3,0 -5,0 -8,0c-2,0 -5,0 -8,0c-3,0 -5,0 -8,0c-2,0 -4,0 -6,0c-2,0 -3,0 -5,0c-2,0 -4,0 -6,0c-1,0 -3,-1 -4,-1c-1,0 -3,0 -4,0c-1,0 -3,0 -4,0c-2,0 -3,0 -5,0c-1,0 -3.026764,-0.229752 -4,0c-2.176239,0.513748 -3,1 -5,1c-2,0 -4.053497,-0.459503 -6,0c-2.176239,0.513748 -4.080261,0.310745 -7,1c-2.176239,0.513748 -4.907776,1.496231 -9,2c-2.977509,0.366547 -5.878555,0.493454 -9,1c-2.961258,0.480545 -6,1 -8,1c-2,0 -5.053497,0.540497 -7,1c-2.176254,0.513748 -3.693436,1.458801 -5,2c-1.847763,0.765366 -3.823746,0.486252 -6,1c-1.946503,0.459503 -3,1 -5,1c-2,0 -3,1 -5,1c-1,0 -1.292892,0.292892 -2,1c-0.707108,0.707108 -1,0 -1,0c0,0 0,0 0,0c0,0 0,0 -1,0c0,0 0,0 0,0c-1,0 -1,0 -1,0c0,0 -1,0 -1,0c0,0 0,0 0,0c0,0 0,0 0,0c0,0 0,0 0,0c0,0 0,0 0,0c0,0 0,0 0,0c0,0 0,0 0,0c0,0 0,0 0,0c0,0 0,0 0,0c0,0 0,0 0,0c0,0 0,0 0,0c0,0 0,0 0,0c0,0 0,0 0,0c0,0 0,0 0,0c0,0 0,0 0,0c0,0 0,0 0,0c0,0 0,0 0,0c0,0 0,0 0,0c0,0 0,0 0,0c0,0 0,0 0,0c0,0 -0.458801,0.306564 -1,-1c-0.38269,-0.923874 0.765366,-2.152237 0,-4c-0.541199,-1.306564 -1,-2 -1,-3c0,-1 0,-1 0,-2c0,0 0,0 0,0c0,0 0,0 0,0c0,-1 0,-1 0,-2c0,0 0,0 0,-1c0,0 0,0 0,0c0,0 0,-1 0,-1c0,0 0,0 0,0c0,-1 0,-1 0,-1c0,0 0,0 0,0c0,-1 0,-1 0,-1c0,0 0,-1 0,-1c0,0 0,0 0,-2c0,0 0,-1 0,-1c0,-1 0,-1 0,-1c0,0 0,0 0,0c0,0 0,0 0,0c0,0 0,0 0,0c0,0 0,0 0,0c0,0 0,0 0,0c0,0 0,0 0,0c0,0 0,0 0,0l0,1l0,0" id="svg_1" fill-opacity="null" stroke-opacity="null" stroke-width="9" stroke="#000" fill="none"/>
 </g>
</svg>
