<svg width="580" height="400" xmlns="http://www.w3.org/2000/svg">

 <g>

  <path d="m258.5,90c0,-1 0,-1 0,-1c0,0 0,0 0,0c0,0 0,1 -1,2c-3,3 -6.220535,7.831276 -10,13c-4.256378,5.820938 -8.862701,12.080261 -13,19c-4.841217,8.097076 -10.218109,14.849228 -15,22c-5.244186,7.842102 -10,15 -15,22c-5,7 -9,13 -13,18c-4,5 -6,8 -8,10c-2,2 -4,4 -5,5c-1,1 -1,1 -2,2c0,0 0,0 0,0c0,0 0,0 0,0c0,0 1.009735,0.197083 3,0c5.074203,-0.502441 11.153778,-2.462891 19,-5c10.247894,-3.313705 20.164001,-7.574921 31,-12c11.186264,-4.568115 22.06485,-8.825974 33,-13c10.062195,-3.84082 18.924835,-6.284729 26,-8c4.955475,-1.201385 10,-1 14,-1c3,0 6.823761,0.486252 9,1c1.946503,0.459503 3,0 3,0c0,0 0,0 0,0c0,0 0,0 0,0c0,0 -1,0 -3,-1c-2,-1 -5.079712,-1.847961 -9,-4c-5.11145,-2.805908 -10.702087,-6.573563 -18,-10c-7.733978,-3.63118 -15.915741,-5.426483 -25,-7c-7.94397,-1.376007 -17,-2 -25,-3c-8,-1 -16.084427,-1.525284 -23,-3c-7.120026,-1.518311 -14,-3 -19,-4c-5,-1 -9.132996,-0.569504 -13,-2c-2.097168,-0.775803 -4.292892,-0.292892 -5,-1c-0.707108,-0.707108 -1,-1 -1,-1c0,0 0,0 0,0c0,0 0,0 0,0c0,0 0.076126,-0.382683 1,0c2.613129,1.082397 6,6 11,11c6,6 13.235413,11.735779 20,18c6.225845,5.76532 12.327179,11.741837 17,18c4.314362,5.778091 8,11 11,16c3,5 5.607025,9.17572 8,14c2.591064,5.223633 5,9 7,12c2,3 3,5 3,5c1,1 1,1 1,1c0,0 0.38269,-1.076126 0,-2c-0.541199,-1.306564 -2,-3 -3,-5c-1,-2 -1.493454,-4.878555 -2,-8c-0.640732,-3.948349 0,-9 0,-14c0,-6 0.432892,-13.020126 1,-21c0.501266,-7.053284 1.929871,-15.009079 3,-23c0.938568,-7.008499 1.17395,-14.168777 3,-21c1.390671,-5.202499 2.881348,-11.025208 4,-16c0.904572,-4.022659 1,-9 1,-14c0,-4 0,-8 0,-12c0,-2 -0.458801,-2.693436 -1,-4c-0.38269,-0.923882 0,-1 0,-2c0,0 0,0 0,0c0,0 0,0 0,0l0,1l0,1" id="svg_1" fill-opacity="null" stroke-opacity="null" stroke-width="9" stroke="#000" fill="none"/>
 </g>
</svg>
